  0
SECTION
  2
HEADER
  9
$ACADVER
  1
AC1018
  9
$ACADMAINTVER
 70
   104
  9
$DWGCODEPAGE
  3
ANSI_936
  9
$LASTSAVEDBY
  1
64513
  9
$INSBASE
 10
0.0
 20
0.0
 30
0.0
  9
$EXTMIN
 10
487817.635
 20
3337298.300666667
 30
0.0
  9
$EXTMAX
 10
487872.5930952381
 20
3337357.732619048
 30
0.0
  9
$LIMMIN
 10
0.0
 20
0.0
  9
$LIMMAX
 10
120.0
 20
80.0
  9
$ORTHOMODE
 70
     0
  9
$REGENMODE
 70
     1
  9
$FILLMODE
 70
     1
  9
$QTEXTMODE
 70
     0
  9
$MIRRTEXT
 70
     1
  9
$LTSCALE
 40
0.5
  9
$ATTMODE
 70
     1
  9
$TEXTSIZE
 40
0.2
  9
$TRACEWID
 40
0.05
  9
$TEXTSTYLE
  7
HZ
  9
$CLAYER
  8
0
  9
$CELTYPE
  6
CONTINUOUS
  9
$CECOLOR
 62
   256
  9
$CELTSCALE
 40
1.0
  9
$DISPSILH
 70
     0
  9
$DIMSCALE
 40
1.0
  9
$DIMASZ
 40
0.18
  9
$DIMEXO
 40
0.0625
  9
$DIMDLI
 40
0.38
  9
$DIMRND
 40
0.0
  9
$DIMDLE
 40
0.0
  9
$DIMEXE
 40
0.18
  9
$DIMTP
 40
0.0
  9
$DIMTM
 40
0.0
  9
$DIMTXT
 40
0.18
  9
$DIMCEN
 40
0.09
  9
$DIMTSZ
 40
0.0
  9
$DIMTOL
 70
     0
  9
$DIMLIM
 70
     0
  9
$DIMTIH
 70
     1
  9
$DIMTOH
 70
     1
  9
$DIMSE1
 70
     0
  9
$DIMSE2
 70
     0
  9
$DIMTAD
 70
     0
  9
$DIMZIN
 70
     0
  9
$DIMBLK
  1

  9
$DIMASO
 70
     1
  9
$DIMSHO
 70
     0
  9
$DIMPOST
  1

  9
$DIMAPOST
  1

  9
$DIMALT
 70
     0
  9
$DIMALTD
 70
     2
  9
$DIMALTF
 40
25.4
  9
$DIMLFAC
 40
1.0
  9
$DIMTOFL
 70
     0
  9
$DIMTVP
 40
0.0
  9
$DIMTIX
 70
     0
  9
$DIMSOXD
 70
     0
  9
$DIMSAH
 70
     0
  9
$DIMBLK1
  1

  9
$DIMBLK2
  1

  9
$DIMSTYLE
  2
STANDARD
  9
$DIMCLRD
 70
     0
  9
$DIMCLRE
 70
     0
  9
$DIMCLRT
 70
     0
  9
$DIMTFAC
 40
1.0
  9
$DIMGAP
 40
0.09
  9
$DIMJUST
 70
     0
  9
$DIMSD1
 70
     0
  9
$DIMSD2
 70
     0
  9
$DIMTOLJ
 70
     1
  9
$DIMTZIN
 70
     0
  9
$DIMALTZ
 70
     0
  9
$DIMALTTZ
 70
     0
  9
$DIMUPT
 70
     0
  9
$DIMDEC
 70
     4
  9
$DIMTDEC
 70
     4
  9
$DIMALTU
 70
     2
  9
$DIMALTTD
 70
     2
  9
$DIMTXSTY
  7
STANDARD
  9
$DIMAUNIT
 70
     0
  9
$DIMADEC
 70
     0
  9
$DIMALTRND
 40
0.0
  9
$DIMAZIN
 70
     0
  9
$DIMDSEP
 70
    46
  9
$DIMATFIT
 70
     3
  9
$DIMFRAC
 70
     0
  9
$DIMLDRBLK
  1

  9
$DIMLUNIT
 70
     2
  9
$DIMLWD
 70
    -2
  9
$DIMLWE
 70
    -2
  9
$DIMTMOVE
 70
     0
  9
$LUNITS
 70
     2
  9
$LUPREC
 70
     4
  9
$SKETCHINC
 40
0.1
  9
$FILLETRAD
 40
0.0
  9
$AUNITS
 70
     0
  9
$AUPREC
 70
     0
  9
$MENU
  1
ACAD
  9
$ELEVATION
 40
0.0
  9
$PELEVATION
 40
0.0
  9
$THICKNESS
 40
0.0
  9
$LIMCHECK
 70
     0
  9
$CHAMFERA
 40
0.0
  9
$CHAMFERB
 40
0.0
  9
$CHAMFERC
 40
0.0
  9
$CHAMFERD
 40
0.0
  9
$SKPOLY
 70
     0
  9
$TDCREATE
 40
2460865.732844537
  9
$TDUCREATE
 40
2460865.399511204
  9
$TDUPDATE
 40
2460865.804065741
  9
$TDUUPDATE
 40
2460865.470732407
  9
$TDINDWG
 40
0.0680784838
  9
$TDUSRTIMER
 40
0.0680783333
  9
$USRTIMER
 70
     1
  9
$ANGBASE
 50
0.0
  9
$ANGDIR
 70
     0
  9
$PDMODE
 70
     0
  9
$PDSIZE
 40
0.2
  9
$PLINEWID
 40
0.0
  9
$SPLFRAME
 70
     0
  9
$SPLINETYPE
 70
     5
  9
$SPLINESEGS
 70
     8
  9
$HANDSEED
  5
55C
  9
$SURFTAB1
 70
     6
  9
$SURFTAB2
 70
     6
  9
$SURFTYPE
 70
     6
  9
$SURFU
 70
     6
  9
$SURFV
 70
     6
  9
$UCSBASE
  2

  9
$UCSNAME
  2

  9
$UCSORG
 10
0.0
 20
0.0
 30
0.0
  9
$UCSXDIR
 10
1.0
 20
0.0
 30
0.0
  9
$UCSYDIR
 10
0.0
 20
1.0
 30
0.0
  9
$UCSORTHOREF
  2

  9
$UCSORTHOVIEW
 70
     0
  9
$UCSORGTOP
 10
0.0
 20
0.0
 30
0.0
  9
$UCSORGBOTTOM
 10
0.0
 20
0.0
 30
0.0
  9
$UCSORGLEFT
 10
0.0
 20
0.0
 30
0.0
  9
$UCSORGRIGHT
 10
0.0
 20
0.0
 30
0.0
  9
$UCSORGFRONT
 10
0.0
 20
0.0
 30
0.0
  9
$UCSORGBACK
 10
0.0
 20
0.0
 30
0.0
  9
$PUCSBASE
  2

  9
$PUCSNAME
  2

  9
$PUCSORG
 10
0.0
 20
0.0
 30
0.0
  9
$PUCSXDIR
 10
1.0
 20
0.0
 30
0.0
  9
$PUCSYDIR
 10
0.0
 20
1.0
 30
0.0
  9
$PUCSORTHOREF
  2

  9
$PUCSORTHOVIEW
 70
     0
  9
$PUCSORGTOP
 10
0.0
 20
0.0
 30
0.0
  9
$PUCSORGBOTTOM
 10
0.0
 20
0.0
 30
0.0
  9
$PUCSORGLEFT
 10
0.0
 20
0.0
 30
0.0
  9
$PUCSORGRIGHT
 10
0.0
 20
0.0
 30
0.0
  9
$PUCSORGFRONT
 10
0.0
 20
0.0
 30
0.0
  9
$PUCSORGBACK
 10
0.0
 20
0.0
 30
0.0
  9
$USERI1
 70
     0
  9
$USERI2
 70
     0
  9
$USERI3
 70
     0
  9
$USERI4
 70
     0
  9
$USERI5
 70
     0
  9
$USERR1
 40
500.0
  9
$USERR2
 40
0.0
  9
$USERR3
 40
0.0
  9
$USERR4
 40
0.0
  9
$USERR5
 40
0.0
  9
$WORLDVIEW
 70
     1
  9
$SHADEDGE
 70
     3
  9
$SHADEDIF
 70
    70
  9
$TILEMODE
 70
     1
  9
$MAXACTVP
 70
    16
  9
$PINSBASE
 10
0.0
 20
0.0
 30
0.0
  9
$PLIMCHECK
 70
     0
  9
$PEXTMIN
 10
1.000000000000000E+20
 20
1.000000000000000E+20
 30
1.000000000000000E+20
  9
$PEXTMAX
 10
-1.000000000000000E+20
 20
-1.000000000000000E+20
 30
-1.000000000000000E+20
  9
$PLIMMIN
 10
0.0
 20
0.0
  9
$PLIMMAX
 10
12.0
 20
9.0
  9
$UNITMODE
 70
     0
  9
$VISRETAIN
 70
     0
  9
$PLINEGEN
 70
     1
  9
$PSLTSCALE
 70
     0
  9
$TREEDEPTH
 70
  3020
  9
$CMLSTYLE
  2
STANDARD
  9
$CMLJUST
 70
     0
  9
$CMLSCALE
 40
1.0
  9
$PROXYGRAPHICS
 70
     1
  9
$MEASUREMENT
 70
     1
  9
$CELWEIGHT
370
    -1
  9
$ENDCAPS
280
     0
  9
$JOINSTYLE
280
     0
  9
$LWDISPLAY
290
     1
  9
$INSUNITS
 70
     0
  9
$HYPERLINKBASE
  1

  9
$STYLESHEET
  1

  9
$XEDIT
290
     1
  9
$CEPSNTYPE
380
     0
  9
$PSTYLEMODE
290
     1
  9
$FINGERPRINTGUID
  2
{44C0642B-4CA8-45EF-A1B1-EB7E08270102}
  9
$VERSIONGUID
  2
{7E97CC05-2567-4D61-A6C1-6743545E2E52}
  9
$EXTNAMES
290
     1
  9
$PSVPSCALE
 40
0.0
  9
$OLESTARTUP
290
     0
  9
$SORTENTS
280
   127
  9
$INDEXCTL
280
     0
  9
$HIDETEXT
280
     0
  9
$XCLIPFRAME
290
     0
  9
$HALOGAP
280
     0
  9
$OBSCOLOR
 70
   257
  9
$OBSLTYPE
280
     0
  9
$INTERSECTIONDISPLAY
280
     0
  9
$INTERSECTIONCOLOR
 70
   257
  9
$DIMASSOC
280
     1
  9
$PROJECTNAME
  1

  0
ENDSEC
  0
SECTION
  2
CLASSES
  0
CLASS
  1
ACDBDICTIONARYWDFLT
  2
AcDbDictionaryWithDefault
  3
ObjectDBX Classes
 90
        0
 91
        1
280
     0
281
     0
  0
CLASS
  1
DICTIONARYVAR
  2
AcDbDictionaryVar
  3
ObjectDBX Classes
 90
        0
 91
        2
280
     0
281
     0
  0
CLASS
  1
MATERIAL
  2
AcDbMaterial
  3
ObjectDBX Classes
 90
     1024
 91
        3
280
     0
281
     0
  0
CLASS
  1
VISUALSTYLE
  2
AcDbVisualStyle
  3
ObjectDBX Classes
 90
     4095
 91
       16
280
     0
281
     0
  0
CLASS
  1
TABLESTYLE
  2
AcDbTableStyle
  3
ObjectDBX Classes
 90
     4095
 91
        1
280
     0
281
     0
  0
CLASS
  1
SORTENTSTABLE
  2
AcDbSortentsTable
  3
ObjectDBX Classes
 90
        0
 91
        1
280
     0
281
     0
  0
CLASS
  1
EXACXREFPANELOBJECT
  2
ExAcXREFPanelObject
  3
EXAC_ESW
 90
     1025
 91
        1
280
     0
281
     0
  0
CLASS
  1
NPOCOLLECTION
  2
AcDbImpNonPersistentObjectsCollection
  3
ObjectDBX Classes
 90
     1153
 91
        1
280
     0
281
     0
  0
CLASS
  1
RASTERVARIABLES
  2
AcDbRasterVariables
  3
ISM
 90
        0
 91
        1
280
     0
281
     0
  0
CLASS
  1
IMAGEDEF
  2
AcDbRasterImageDef
  3
ISM
 90
        0
 91
        1
280
     0
281
     0
  0
CLASS
  1
IMAGEDEF_REACTOR
  2
AcDbRasterImageDefReactor
  3
ISM
 90
        1
 91
        2
280
     0
281
     0
  0
CLASS
  1
IMAGE
  2
AcDbRasterImage
  3
ISM
 90
     2175
 91
        0
280
     0
281
     1
  0
ENDSEC
  0
SECTION
  2
TABLES
  0
TABLE
  2
VPORT
  5
8
330
0
100
AcDbSymbolTable
 70
     1
  0
VPORT
  5
495
330
8
100
AcDbSymbolTableRecord
100
AcDbViewportTableRecord
  2
*Active
 70
     0
 10
0.0
 20
0.0
 11
1.0
 21
1.0
 12
487848.9876172799
 22
3337329.371514814
 13
0.0
 23
0.0
 14
1.0
 24
1.0
 15
0.0
 25
0.0
 16
0.0
 26
0.0
 36
1.0
 17
0.0
 27
0.0
 37
0.0
 40
80.72821243518623
 41
1.743554952510176
 42
50.0
 43
0.0
 44
0.0
 50
0.0
 51
0.0
 71
     0
 72
   100
 73
     1
 74
     0
 75
     0
 76
     0
 77
     0
 78
     0
281
     0
 65
     1
110
0.0
120
0.0
130
0.0
111
1.0
121
0.0
131
0.0
112
0.0
122
1.0
132
0.0
 79
     0
146
0.0
  0
ENDTAB
  0
TABLE
  2
LTYPE
  5
5
330
0
100
AcDbSymbolTable
 70
    16
  0
LTYPE
  5
12
330
5
100
AcDbSymbolTableRecord
100
AcDbLinetypeTableRecord
  2
BYBLOCK
 70
     0
  3

 72
    65
 73
     0
 40
0.0
  0
LTYPE
  5
13
330
5
100
AcDbSymbolTableRecord
100
AcDbLinetypeTableRecord
  2
BYLAYER
 70
     0
  3

 72
    65
 73
     0
 40
0.0
  0
LTYPE
  5
14
330
5
100
AcDbSymbolTableRecord
100
AcDbLinetypeTableRecord
  2
CONTINUOUS
 70
     0
  3
Solid line
 72
    65
 73
     0
 40
0.0
  0
LTYPE
  5
2B5
330
5
100
AcDbSymbolTableRecord
100
AcDbLinetypeTableRecord
  2
X0
 70
     0
  3

 72
    65
 73
     2
 40
4.0
 49
3.0
 74
     0
 49
-1.0
 74
     0
  0
LTYPE
  5
2B6
330
5
100
AcDbSymbolTableRecord
100
AcDbLinetypeTableRecord
  2
X1
 70
     0
  3

 72
    65
 73
     2
 40
5.0
 49
4.0
 74
     0
 49
-1.0
 74
     0
  0
LTYPE
  5
2B7
330
5
100
AcDbSymbolTableRecord
100
AcDbLinetypeTableRecord
  2
X10
 70
     0
  3

 72
    65
 73
     8
 40
17.999
 49
6.0
 74
     0
 49
-2.0
 74
     0
 49
6.0
 74
     0
 49
-1.333
 74
     0
 49
0.0
 74
     0
 49
-1.333
 74
     0
 49
0.0
 74
     0
 49
-1.333
 74
     0
  0
LTYPE
  5
2B9
330
5
100
AcDbSymbolTableRecord
100
AcDbLinetypeTableRecord
  2
X2
 70
     0
  3

 72
    65
 73
     2
 40
10.0
 49
8.0
 74
     0
 49
-2.0
 74
     0
  0
LTYPE
  5
2BA
330
5
100
AcDbSymbolTableRecord
100
AcDbLinetypeTableRecord
  2
X3
 70
     0
  3

 72
    65
 73
     2
 40
5.0
 49
4.0
 74
     0
 49
-1.0
 74
     0
  0
LTYPE
  5
2BB
330
5
100
AcDbSymbolTableRecord
100
AcDbLinetypeTableRecord
  2
X4
 70
     0
  3

 72
    65
 73
     2
 40
1.6
 49
0.0
 74
     0
 49
-1.6
 74
     0
  0
LTYPE
  5
2BC
330
5
100
AcDbSymbolTableRecord
100
AcDbLinetypeTableRecord
  2
X5
 70
     0
  3

 72
    65
 73
     2
 40
3.0
 49
2.0
 74
     0
 49
-1.0
 74
     0
  0
LTYPE
  5
2BD
330
5
100
AcDbSymbolTableRecord
100
AcDbLinetypeTableRecord
  2
X6
 70
     0
  3

 72
    65
 73
     2
 40
2.0
 49
1.0
 74
     0
 49
-1.0
 74
     0
  0
LTYPE
  5
2BE
330
5
100
AcDbSymbolTableRecord
100
AcDbLinetypeTableRecord
  2
X7
 70
     0
  3

 72
    65
 73
     6
 40
9.999
 49
6.0
 74
     0
 49
-1.333
 74
     0
 49
0.0
 74
     0
 49
-1.333
 74
     0
 49
0.0
 74
     0
 49
-1.333
 74
     0
  0
LTYPE
  5
2BF
330
5
100
AcDbSymbolTableRecord
100
AcDbLinetypeTableRecord
  2
X8
 70
     0
  3

 72
    65
 73
     6
 40
18.0
 49
6.0
 74
     0
 49
-2.0
 74
     0
 49
6.0
 74
     0
 49
-2.0
 74
     0
 49
0.0
 74
     0
 49
-2.0
 74
     0
  0
LTYPE
  5
2C0
330
5
100
AcDbSymbolTableRecord
100
AcDbLinetypeTableRecord
  2
X9
 70
     0
  3

 72
    65
 73
     4
 40
10.0
 49
6.0
 74
     0
 49
-2.0
 74
     0
 49
0.0
 74
     0
 49
-2.0
 74
     0
  0
LTYPE
  5
39F
330
5
100
AcDbSymbolTableRecord
100
AcDbLinetypeTableRecord
  2
1161
 70
     0
  3

 72
    65
 73
     2
 40
1.6
 49
0.0
 74
     4
 75
   149
340
17D
 46
0.15
 50
0.0
 44
0.0
 45
0.0
 49
-1.6
 74
     0
  0
LTYPE
  5
4CD
330
5
100
AcDbSymbolTableRecord
100
AcDbLinetypeTableRecord
  2
536
 70
     0
  3

 72
    65
 73
     2
 40
10.0
 49
9.4
 74
     4
 75
   169
340
17D
 46
1.0
 50
0.0
 44
0.0
 45
0.15
 49
0.6
 74
     0
  0
LTYPE
  5
4ED
330
5
100
AcDbSymbolTableRecord
100
AcDbLinetypeTableRecord
  2
1033B
 70
     0
  3
---#---#---#---
 72
    65
 73
     2
 40
2.0
 49
1.0
 74
     4
 75
   186
340
17D
 46
1.0
 50
0.0
 44
0.0
 45
0.0
 49
1.0
 74
     0
  0
LTYPE
  5
4EF
330
5
100
AcDbSymbolTableRecord
100
AcDbLinetypeTableRecord
  2
10412
 70
     0
  3
---|---|---|---|---
 72
    65
 73
     3
 40
4.00000000001
 49
2.0
 74
     4
 75
   158
340
17D
 46
1.0
 50
0.0
 44
0.0
 45
0.0
 49
2.0
 74
     4
 75
   151
340
17D
 46
1.0
 50
0.0
 44
0.0
 45
3.0
 49
0.00000000001
 74
     0
  0
ENDTAB
  0
TABLE
  2
LAYER
  5
2
330
0
100
AcDbSymbolTable
 70
    28
  0
LAYER
  5
F
330
2
100
AcDbSymbolTableRecord
100
AcDbLayerTableRecord
  2
0
 70
     0
 62
     7
  6
CONTINUOUS
370
    -3
390
240
  0
LAYER
  5
47
330
2
100
AcDbSymbolTableRecord
100
AcDbLayerTableRecord
  2
KZD
 70
     0
 62
     1
  6
CONTINUOUS
370
    -3
390
240
  0
LAYER
  5
48
330
2
100
AcDbSymbolTableRecord
100
AcDbLayerTableRecord
  2
JMD
 70
     0
 62
     6
  6
CONTINUOUS
370
    -3
390
240
  0
LAYER
  5
49
330
2
100
AcDbSymbolTableRecord
100
AcDbLayerTableRecord
  2
DLSS
 70
     0
 62
     4
  6
CONTINUOUS
370
    -3
390
240
  0
LAYER
  5
4A
330
2
100
AcDbSymbolTableRecord
100
AcDbLayerTableRecord
  2
GXYZ
 70
     0
 62
     2
  6
CONTINUOUS
370
    -3
390
240
  0
LAYER
  5
4B
330
2
100
AcDbSymbolTableRecord
100
AcDbLayerTableRecord
  2
DLDW
 70
     0
 62
    11
  6
CONTINUOUS
370
    -3
390
240
  0
LAYER
  5
4C
330
2
100
AcDbSymbolTableRecord
100
AcDbLayerTableRecord
  2
ZBTZ
 70
     0
 62
     3
  6
CONTINUOUS
370
    -3
390
240
  0
LAYER
  5
4D
330
2
100
AcDbSymbolTableRecord
100
AcDbLayerTableRecord
  2
SXSS
 70
     0
 62
     5
  6
CONTINUOUS
370
    -3
390
240
  0
LAYER
  5
4E
330
2
100
AcDbSymbolTableRecord
100
AcDbLayerTableRecord
  2
JJ
 70
     0
 62
     2
  6
CONTINUOUS
370
    -3
390
240
  0
LAYER
  5
4F
330
2
100
AcDbSymbolTableRecord
100
AcDbLayerTableRecord
  2
JZD
 70
     0
 62
     1
  6
CONTINUOUS
370
    -3
390
240
  0
LAYER
  5
50
330
2
100
AcDbSymbolTableRecord
100
AcDbLayerTableRecord
  2
GCD
 70
     0
 62
     1
  6
CONTINUOUS
370
    -3
390
240
  0
LAYER
  5
51
330
2
100
AcDbSymbolTableRecord
100
AcDbLayerTableRecord
  2
SJW
 70
     0
 62
     1
  6
CONTINUOUS
370
    -3
390
240
  0
LAYER
  5
52
330
2
100
AcDbSymbolTableRecord
100
AcDbLayerTableRecord
  2
DGX
 70
     0
 62
     2
  6
CONTINUOUS
370
    -3
390
240
  0
LAYER
  5
53
330
2
100
AcDbSymbolTableRecord
100
AcDbLayerTableRecord
  2
DSX
 70
     0
 62
     2
  6
CONTINUOUS
370
    -3
390
240
  0
LAYER
  5
54
330
2
100
AcDbSymbolTableRecord
100
AcDbLayerTableRecord
  2
ZDH
 70
     0
 62
     1
  6
CONTINUOUS
370
    -3
390
240
  0
LAYER
  5
55
330
2
100
AcDbSymbolTableRecord
100
AcDbLayerTableRecord
  2
ZJ
 70
     0
 62
     7
  6
CONTINUOUS
370
    -3
390
240
  0
LAYER
  5
56
330
2
100
AcDbSymbolTableRecord
100
AcDbLayerTableRecord
  2
MJZJ
 70
     0
 62
     4
  6
CONTINUOUS
370
    -3
390
240
  0
LAYER
  5
57
330
2
100
AcDbSymbolTableRecord
100
AcDbLayerTableRecord
  2
TK
 70
     0
 62
     7
  6
CONTINUOUS
370
    -3
390
240
  0
LAYER
  5
15C
330
2
100
AcDbSymbolTableRecord
100
AcDbLayerTableRecord
  2
DMTZ
 70
     0
 62
     3
  6
CONTINUOUS
370
    -3
390
240
  0
LAYER
  5
22C
330
2
100
AcDbSymbolTableRecord
100
AcDbLayerTableRecord
  2
ASSIST
 70
     0
 62
     7
  6
CONTINUOUS
290
     0
370
    -3
390
240
  0
LAYER
  5
360
330
2
100
AcDbSymbolTableRecord
100
AcDbLayerTableRecord
  2
JZP
 70
     0
 62
     1
  6
CONTINUOUS
370
    -3
390
240
  0
LAYER
  5
3D6
330
2
100
AcDbSymbolTableRecord
100
AcDbLayerTableRecord
  2
DLJ
 70
     0
 62
     2
  6
CONTINUOUS
370
    -3
390
240
  0
LAYER
  5
3D7
330
2
100
AcDbSymbolTableRecord
100
AcDbLayerTableRecord
  2
KCYDJ
 70
     0
 62
     1
  6
CONTINUOUS
370
    -3
390
240
  0
LAYER
  5
3D8
330
2
100
AcDbSymbolTableRecord
100
AcDbLayerTableRecord
  2
KCJZD
 70
     0
 62
     1
  6
CONTINUOUS
370
    -3
390
240
  0
LAYER
  5
3D9
330
2
100
AcDbSymbolTableRecord
100
AcDbLayerTableRecord
  2
KCJZD_TXT
 70
     0
 62
     1
  6
CONTINUOUS
370
    -3
390
240
  0
LAYER
  5
40D
330
2
100
AcDbSymbolTableRecord
100
AcDbLayerTableRecord
  2
COMMUNITY
 70
     0
 62
     1
  6
CONTINUOUS
370
    -3
390
240
  0
LAYER
  5
40E
330
2
100
AcDbSymbolTableRecord
100
AcDbLayerTableRecord
  2
BASICGRID
 70
     0
 62
     5
  6
CONTINUOUS
370
    -3
390
240
  0
LAYER
  5
40F
330
2
100
AcDbSymbolTableRecord
100
AcDbLayerTableRecord
  2
COMPONENT
 70
     0
 62
     4
  6
CONTINUOUS
370
    -3
390
240
  0
ENDTAB
  0
TABLE
  2
STYLE
  5
3
330
0
100
AcDbSymbolTable
 70
    19
  0
STYLE
  5
10
330
3
100
AcDbSymbolTableRecord
100
AcDbTextStyleTableRecord
  2
STANDARD
 70
     0
 40
0.0
 41
1.0
 50
0.0
 71
     0
 42
0.2
  3
rs.shx
  4
hztxt.shx
  0
STYLE
  5
35
330
3
100
AcDbSymbolTableRecord
100
AcDbTextStyleTableRecord
  2
HZ
 70
     0
 40
0.0
 41
0.8
 50
0.0
 71
     0
 42
0.2
  3
rs.shx
  4
hztxt.shx
  0
STYLE
  5
36
330
3
100
AcDbSymbolTableRecord
100
AcDbTextStyleTableRecord
  2
KHZ
 70
     0
 40
0.0
 41
1.0
 50
0.0
 71
     0
 42
0.2
  3
rd
  4
khz
  0
STYLE
  5
37
330
3
100
AcDbSymbolTableRecord
100
AcDbTextStyleTableRecord
  2
FS
 70
     0
 40
0.0
 41
1.0
 50
0.0
 71
     0
 42
0.2
  3
rs.shx
  4
fs.shx
  0
STYLE
  5
38
330
3
100
AcDbSymbolTableRecord
100
AcDbTextStyleTableRecord
  2
HT
 70
     0
 40
0.0
 41
1.0
 50
0.0
 71
     0
 42
10.0
  3
rd.shx
  4
ht.shx
  0
STYLE
  5
17B
330
3
100
AcDbSymbolTableRecord
100
AcDbTextStyleTableRecord
  2

 70
     1
 40
0.0
 41
0.8
 50
0.0
 71
     0
 42
10.0
  3
CASS.SHX
  4
ht
  0
STYLE
  5
17D
330
3
100
AcDbSymbolTableRecord
100
AcDbTextStyleTableRecord
  2

 70
     1
 40
0.0
 41
0.8
 50
0.0
 71
     0
 42
10.0
  3
AAA.SHX
  4
ht
  0
STYLE
  5
238
330
3
100
AcDbSymbolTableRecord
100
AcDbTextStyleTableRecord
  2

 70
     1
 40
0.0
 41
1.0
 50
0.0
 71
     0
 42
0.2
  3
ltypeshp.shx
  4

  0
STYLE
  5
36F
330
3
100
AcDbSymbolTableRecord
100
AcDbTextStyleTableRecord
  2
µČĎßĚĺ
 70
     0
 40
0.0
 41
1.0
 50
0.0
 71
     0
 42
0.2
  3
simhei.ttf
  4

1001
ACAD
1000
SimHei
1071
    34306
  0
STYLE
  5
371
330
3
100
AcDbSymbolTableRecord
100
AcDbTextStyleTableRecord
  2
ËÎĚĺ
 70
     0
 40
0.0
 41
1.0
 50
0.0
 71
     0
 42
0.2
  3

  4

1001
ACAD
1000
SimSun
1071
    34306
  0
STYLE
  5
3AE
330
3
100
AcDbSymbolTableRecord
100
AcDbTextStyleTableRecord
  2
·ÂËÎĚĺ
 70
     0
 40
0.0
 41
0.8
 50
0.0
 71
     0
 42
0.2
  3

  4

1001
ACAD
1000
·ÂËÎ_GB2312
1071
    34353
  0
STYLE
  5
3B0
330
3
100
AcDbSymbolTableRecord
100
AcDbTextStyleTableRecord
  2
ż¬Ěĺ
 70
     0
 40
0.0
 41
0.8
 50
0.0
 71
     0
 42
0.2
  3

  4

1001
ACAD
1000
ż¬Ěĺ_GB2312
1071
    34353
  0
STYLE
  5
421
330
3
100
AcDbSymbolTableRecord
100
AcDbTextStyleTableRecord
  2
´ÖµČĎßĚĺ
 70
     0
 40
0.0
 41
1.0
 50
0.0
 71
     0
 42
0.2
  3
simhei.ttf
  4

1001
ACAD
1000
SimHei
1071
    34306
  0
STYLE
  5
422
330
3
100
AcDbSymbolTableRecord
100
AcDbTextStyleTableRecord
  2
ÖĐµČĎßĚĺ
 70
     0
 40
0.0
 41
1.0
 50
0.0
 71
     0
 42
0.2
  3

  4

1001
ACAD
1000
FZZhongDengXian-Z07S
1071
    34306
  0
STYLE
  5
434
330
3
100
AcDbSymbolTableRecord
100
AcDbTextStyleTableRecord
  2
Ď¸µČĎßĚĺ
 70
     0
 40
0.0
 41
0.8
 50
0.0
 71
     0
 42
0.2
  3

  4

1001
ACAD
1000
FZXiDengXian-Z06S
1071
    34306
  0
STYLE
  5
435
330
3
100
AcDbSymbolTableRecord
100
AcDbTextStyleTableRecord
  2
ŐýµČĎßĚĺ
 70
     0
 40
0.0
 41
1.0
 50
0.0
 71
     0
 42
0.2
  3
simhei.ttf
  4

1001
ACAD
1000
SimHei
1071
    34306
  0
STYLE
  5
47E
330
3
100
AcDbSymbolTableRecord
100
AcDbTextStyleTableRecord
  2
şÚĚĺ
 70
     0
 40
0.0
 41
1.0
 50
0.0
 71
     0
 42
0.2
  3
simhei.ttf
  4

1001
ACAD
1000
SimHei
1071
    34306
  0
STYLE
  5
492
330
3
100
AcDbSymbolTableRecord
100
AcDbTextStyleTableRecord
  2
±âµČĎßĚĺ
 70
     0
 40
0.0
 41
1.33
 50
0.0
 71
     0
 42
0.2
  3

  4

1001
ACAD
1000
ĂÔÄăĽňĚŘĎ¸µČĎß
1071
    34306
  0
STYLE
  5
494
330
3
100
AcDbSymbolTableRecord
100
AcDbTextStyleTableRecord
  2
ł¤µČĎßĚĺ
 70
     0
 40
0.0
 41
0.8
 50
0.0
 71
     0
 42
0.2
  3

  4

1001
ACAD
1000
FZXiDengXian-Z06S
1071
    34306
  0
ENDTAB
  0
TABLE
  2
VIEW
  5
6
330
0
100
AcDbSymbolTable
 70
     0
  0
ENDTAB
  0
TABLE
  2
UCS
  5
7
330
0
100
AcDbSymbolTable
 70
     0
  0
ENDTAB
  0
TABLE
  2
APPID
  5
9
330
0
100
AcDbSymbolTable
 70
     6
  0
APPID
  5
11
330
9
100
AcDbSymbolTableRecord
100
AcDbRegAppTableRecord
  2
ACAD
 70
     0
  0
APPID
  5
15B
330
9
100
AcDbSymbolTableRecord
100
AcDbRegAppTableRecord
  2
SOUTH
 70
     0
  0
APPID
  5
3C4
330
9
100
AcDbSymbolTableRecord
100
AcDbRegAppTableRecord
  2
attribute
 70
     0
  0
APPID
  5
4BC
330
9
100
AcDbSymbolTableRecord
100
AcDbRegAppTableRecord
  2
NAME
 70
     0
  0
APPID
  5
4BD
330
9
100
AcDbSymbolTableRecord
100
AcDbRegAppTableRecord
  2
CODE
 70
     0
  0
APPID
  5
4C7
330
9
100
AcDbSymbolTableRecord
100
AcDbRegAppTableRecord
  2
ACAD_EXEMPT_FROM_CAD_STANDARDS
 70
     0
  0
ENDTAB
  0
TABLE
  2
DIMSTYLE
  5
A
330
0
100
AcDbSymbolTable
 70
     1
100
AcDbDimStyleTable
 71
     1
340
136
  0
DIMSTYLE
105
136
330
A
100
AcDbSymbolTableRecord
100
AcDbDimStyleTableRecord
  2
STANDARD
 70
     0
340
10
  0
ENDTAB
  0
TABLE
  2
BLOCK_RECORD
  5
1
330
0
100
AcDbSymbolTable
 70
    20
  0
BLOCK_RECORD
  5
18
102
{ACAD_XDICTIONARY
360
4F4
102
}
330
1
100
AcDbSymbolTableRecord
100
AcDbBlockTableRecord
  2
*MODEL_SPACE
340
243
  0
BLOCK_RECORD
  5
15
330
1
100
AcDbSymbolTableRecord
100
AcDbBlockTableRecord
  2
*PAPER_SPACE
340
244
  0
BLOCK_RECORD
  5
1C
330
1
100
AcDbSymbolTableRecord
100
AcDbBlockTableRecord
  2
GC148
340
0
  0
BLOCK_RECORD
  5
1F
330
1
100
AcDbSymbolTableRecord
100
AcDbBlockTableRecord
  2
GC001
340
0
  0
BLOCK_RECORD
  5
20
330
1
100
AcDbSymbolTableRecord
100
AcDbBlockTableRecord
  2
GC003
340
0
  0
BLOCK_RECORD
  5
21
330
1
100
AcDbSymbolTableRecord
100
AcDbBlockTableRecord
  2
GC077
340
0
  0
BLOCK_RECORD
  5
22
330
1
100
AcDbSymbolTableRecord
100
AcDbBlockTableRecord
  2
GC078
340
0
  0
BLOCK_RECORD
  5
23
330
1
100
AcDbSymbolTableRecord
100
AcDbBlockTableRecord
  2
GC081
340
0
  0
BLOCK_RECORD
  5
24
330
1
100
AcDbSymbolTableRecord
100
AcDbBlockTableRecord
  2
GC082
340
0
  0
BLOCK_RECORD
  5
25
330
1
100
AcDbSymbolTableRecord
100
AcDbBlockTableRecord
  2
GC151
340
0
  0
BLOCK_RECORD
  5
26
330
1
100
AcDbSymbolTableRecord
100
AcDbBlockTableRecord
  2
GC079
340
0
  0
BLOCK_RECORD
  5
27
330
1
100
AcDbSymbolTableRecord
100
AcDbBlockTableRecord
  2
GC080
340
0
  0
BLOCK_RECORD
  5
28
330
1
100
AcDbSymbolTableRecord
100
AcDbBlockTableRecord
  2
GC083
340
0
  0
BLOCK_RECORD
  5
29
330
1
100
AcDbSymbolTableRecord
100
AcDbBlockTableRecord
  2
GC084
340
0
  0
BLOCK_RECORD
  5
2A
330
1
100
AcDbSymbolTableRecord
100
AcDbBlockTableRecord
  2
GC085
340
0
  0
BLOCK_RECORD
  5
2C
330
1
100
AcDbSymbolTableRecord
100
AcDbBlockTableRecord
  2
GC005
340
0
  0
BLOCK_RECORD
  5
2D
330
1
100
AcDbSymbolTableRecord
100
AcDbBlockTableRecord
  2
GC131
340
0
  0
BLOCK_RECORD
  5
30
330
1
100
AcDbSymbolTableRecord
100
AcDbBlockTableRecord
  2
GC007
340
0
  0
BLOCK_RECORD
  5
32
330
1
100
AcDbSymbolTableRecord
100
AcDbBlockTableRecord
  2
GC009
340
0
  0
BLOCK_RECORD
  5
141
330
1
100
AcDbSymbolTableRecord
100
AcDbBlockTableRecord
  2
GC200
340
0
  0
BLOCK_RECORD
  5
20C
330
1
100
AcDbSymbolTableRecord
100
AcDbBlockTableRecord
  2
GC0850
340
0
  0
BLOCK_RECORD
  5
21C
330
1
100
AcDbSymbolTableRecord
100
AcDbBlockTableRecord
  2
GC0000
340
0
  0
ENDTAB
  0
ENDSEC
  0
SECTION
  2
BLOCKS
  0
BLOCK
  5
5A
330
18
100
AcDbEntity
  8
0
100
AcDbBlockBegin
  2
*MODEL_SPACE
 70
     0
 10
0.0
 20
0.0
 30
0.0
  3
*MODEL_SPACE
  1

  0
ENDBLK
  5
5B
330
18
100
AcDbEntity
  8
0
100
AcDbBlockEnd
  0
BLOCK
  5
58
330
15
100
AcDbEntity
 67
     1
  8
0
100
AcDbBlockBegin
  2
*PAPER_SPACE
 70
     0
 10
0.0
 20
0.0
 30
0.0
  3
*PAPER_SPACE
  1

  0
ENDBLK
  5
59
330
15
100
AcDbEntity
 67
     1
  8
0
100
AcDbBlockEnd
  0
BLOCK
  5
5C
330
1C
100
AcDbEntity
  8
0
100
AcDbBlockBegin
  2
GC148
 70
     0
 10
0.0
 20
0.0
 30
0.0
  3
GC148
  1

  0
LINE
  5
5D
330
1C
100
AcDbEntity
  8
0
100
AcDbLine
 10
-0.5
 20
0.0
 30
0.0
 11
0.5
 21
0.0
 31
0.0
  0
LINE
  5
5E
330
1C
100
AcDbEntity
  8
0
100
AcDbLine
 10
0.0
 20
0.5
 30
0.0
 11
0.0
 21
-0.5
 31
0.0
  0
ENDBLK
  5
5F
330
1C
100
AcDbEntity
  8
0
100
AcDbBlockEnd
  0
BLOCK
  5
CC
330
1F
100
AcDbEntity
  8
0
100
AcDbBlockBegin
  2
GC001
 70
     0
 10
0.0
 20
0.0
 30
0.0
  3
GC001
  1

  0
LINE
  5
CD
330
1F
100
AcDbEntity
  8
0
100
AcDbLine
 10
-0.25
 20
0.0
 30
0.0
 11
-0.25
 21
-0.5
 31
0.0
  0
LINE
  5
CE
330
1F
100
AcDbEntity
  8
0
100
AcDbLine
 10
0.25
 20
0.0
 30
0.0
 11
0.25
 21
-0.5
 31
0.0
  0
ENDBLK
  5
CF
330
1F
100
AcDbEntity
  8
0
100
AcDbBlockEnd
  0
BLOCK
  5
D0
330
20
100
AcDbEntity
  8
0
100
AcDbBlockBegin
  2
GC003
 70
     0
 10
0.0
 20
0.0
 30
0.0
  3
GC003
  1

  0
LINE
  5
D1
330
20
100
AcDbEntity
  8
0
100
AcDbLine
 10
0.0
 20
0.8
 30
0.0
 11
0.0
 21
1.8
 31
0.0
  0
LINE
  5
D2
330
20
100
AcDbEntity
  8
0
100
AcDbLine
 10
0.0
 20
-1.0
 30
0.0
 11
0.0
 21
0.0
 31
0.0
  0
ENDBLK
  5
D3
330
20
100
AcDbEntity
  8
0
100
AcDbBlockEnd
  0
BLOCK
  5
D4
330
21
100
AcDbEntity
  8
0
100
AcDbBlockBegin
  2
GC077
 70
     0
 10
0.0
 20
0.0
 30
0.0
  3
GC077
  1

  0
LINE
  5
D5
330
21
100
AcDbEntity
  8
0
100
AcDbLine
 10
0.0
 20
0.0
 30
0.0
 11
0.0
 21
1.0
 31
0.0
  0
ENDBLK
  5
D6
330
21
100
AcDbEntity
  8
0
100
AcDbBlockEnd
  0
BLOCK
  5
D7
330
22
100
AcDbEntity
  8
0
100
AcDbBlockBegin
  2
GC078
 70
     0
 10
0.0
 20
0.0
 30
0.0
  3
GC078
  1

  0
LINE
  5
D8
330
22
100
AcDbEntity
  8
0
100
AcDbLine
 10
0.0
 20
-1.0
 30
0.0
 11
0.0
 21
0.0
 31
0.0
  0
ENDBLK
  5
D9
330
22
100
AcDbEntity
  8
0
100
AcDbBlockEnd
  0
BLOCK
  5
DA
330
23
100
AcDbEntity
  8
0
100
AcDbBlockBegin
  2
GC081
 70
     0
 10
0.0
 20
0.0
 30
0.0
  3
GC081
  1

  0
POINT
  5
DB
330
23
100
AcDbEntity
  8
0
100
AcDbPoint
 10
1.5
 20
0.7
 30
0.0
  0
LINE
  5
DC
330
23
100
AcDbEntity
  8
0
100
AcDbLine
 10
0.0
 20
0.0
 30
0.0
 11
0.0
 21
1.0
 31
0.0
  0
ENDBLK
  5
DD
330
23
100
AcDbEntity
  8
0
100
AcDbBlockEnd
  0
BLOCK
  5
DE
330
24
100
AcDbEntity
  8
0
100
AcDbBlockBegin
  2
GC082
 70
     0
 10
0.0
 20
0.0
 30
0.0
  3
GC082
  1

  0
LINE
  5
DF
330
24
100
AcDbEntity
  8
0
100
AcDbLine
 10
0.0
 20
-1.0
 30
0.0
 11
0.0
 21
0.0
 31
0.0
  0
POINT
  5
E0
330
24
100
AcDbEntity
  8
0
100
AcDbPoint
 10
1.5
 20
-0.7
 30
0.0
  0
ENDBLK
  5
E1
330
24
100
AcDbEntity
  8
0
100
AcDbBlockEnd
  0
BLOCK
  5
E2
330
25
100
AcDbEntity
  8
0
100
AcDbBlockBegin
  2
GC151
 70
     0
 10
0.0
 20
0.0
 30
0.0
  3
GC151
  1

  0
LINE
  5
E3
330
25
100
AcDbEntity
  8
0
100
AcDbLine
 10
0.0
 20
-0.5
 30
0.0
 11
0.0
 21
0.0
 31
0.0
  0
ENDBLK
  5
E4
330
25
100
AcDbEntity
  8
0
100
AcDbBlockEnd
  0
BLOCK
  5
E5
330
26
100
AcDbEntity
  8
0
100
AcDbBlockBegin
  2
GC079
 70
     0
 10
0.0
 20
0.0
 30
0.0
  3
GC079
  1

  0
LINE
  5
E6
330
26
100
AcDbEntity
  8
0
100
AcDbLine
 10
1.5
 20
0.0
 30
0.0
 11
1.5
 21
1.0
 31
0.0
  0
LINE
  5
E7
330
26
100
AcDbEntity
  8
0
100
AcDbLine
 10
0.0
 20
0.0
 30
0.0
 11
0.0
 21
2.0
 31
0.0
  0
ENDBLK
  5
E8
330
26
100
AcDbEntity
  8
0
100
AcDbBlockEnd
  0
BLOCK
  5
E9
330
27
100
AcDbEntity
  8
0
100
AcDbBlockBegin
  2
GC080
 70
     0
 10
0.0
 20
0.0
 30
0.0
  3
GC080
  1

  0
LINE
  5
EA
330
27
100
AcDbEntity
  8
0
100
AcDbLine
 10
1.5
 20
-1.0
 30
0.0
 11
1.5
 21
0.0
 31
0.0
  0
LINE
  5
EB
330
27
100
AcDbEntity
  8
0
100
AcDbLine
 10
0.0
 20
-2.0
 30
0.0
 11
0.0
 21
0.0
 31
0.0
  0
ENDBLK
  5
EC
330
27
100
AcDbEntity
  8
0
100
AcDbBlockEnd
  0
BLOCK
  5
ED
330
28
100
AcDbEntity
  8
0
100
AcDbBlockBegin
  2
GC083
 70
     0
 10
0.0
 20
0.0
 30
0.0
  3
GC083
  1

  0
POINT
  5
EE
330
28
100
AcDbEntity
  8
0
100
AcDbPoint
 10
1.5
 20
1.5
 30
0.0
  0
LINE
  5
EF
330
28
100
AcDbEntity
  8
0
100
AcDbLine
 10
1.5
 20
0.0
 30
0.0
 11
1.5
 21
0.8
 31
0.0
  0
LINE
  5
F0
330
28
100
AcDbEntity
  8
0
100
AcDbLine
 10
0.0
 20
2.0
 30
0.0
 11
0.0
 21
0.0
 31
0.0
  0
ENDBLK
  5
F1
330
28
100
AcDbEntity
  8
0
100
AcDbBlockEnd
  0
BLOCK
  5
F2
330
29
100
AcDbEntity
  8
0
100
AcDbBlockBegin
  2
GC084
 70
     0
 10
0.0
 20
0.0
 30
0.0
  3
GC084
  1

  0
POINT
  5
F3
330
29
100
AcDbEntity
  8
0
100
AcDbPoint
 10
1.5
 20
-1.5
 30
0.0
  0
LINE
  5
F4
330
29
100
AcDbEntity
  8
0
100
AcDbLine
 10
1.5
 20
0.0
 30
0.0
 11
1.5
 21
-0.8
 31
0.0
  0
LINE
  5
F5
330
29
100
AcDbEntity
  8
0
100
AcDbLine
 10
0.0
 20
0.0
 30
0.0
 11
0.0
 21
-2.0
 31
0.0
  0
ENDBLK
  5
F6
330
29
100
AcDbEntity
  8
0
100
AcDbBlockEnd
  0
BLOCK
  5
F7
330
2A
100
AcDbEntity
  8
0
100
AcDbBlockBegin
  2
GC085
 70
     0
 10
0.0
 20
0.0
 30
0.0
  3
GC085
  1

  0
LINE
  5
F8
330
2A
100
AcDbEntity
  8
0
100
AcDbLine
 10
0.0
 20
-0.4
 30
0.0
 11
0.0
 21
0.4
 31
0.0
  0
ENDBLK
  5
F9
330
2A
100
AcDbEntity
  8
0
100
AcDbBlockEnd
  0
BLOCK
  5
100
330
2C
100
AcDbEntity
  8
0
100
AcDbBlockBegin
  2
GC005
 70
     0
 10
0.0
 20
0.0
 30
0.0
  3
GC005
  1

  0
LWPOLYLINE
  5
101
330
2C
100
AcDbEntity
  8
0
100
AcDbPolyline
 90
        4
 70
     1
 43
0.0
 10
-1.5
 20
-1.0
 10
1.5
 20
-1.0
 10
1.5
 20
1.0
 10
-1.5
 20
1.0
  0
ENDBLK
  5
107
330
2C
100
AcDbEntity
  8
0
100
AcDbBlockEnd
  0
BLOCK
  5
108
330
2D
100
AcDbEntity
  8
0
100
AcDbBlockBegin
  2
GC131
 70
     0
 10
0.0
 20
0.0
 30
0.0
  3
GC131
  1

  0
LINE
  5
109
330
2D
100
AcDbEntity
  8
0
100
AcDbLine
 10
-5.0
 20
5.0
 30
0.0
 11
5.0
 21
-5.0
 31
0.0
  0
LINE
  5
10A
330
2D
100
AcDbEntity
  8
0
100
AcDbLine
 10
-5.0
 20
-5.0
 30
0.0
 11
5.0
 21
5.0
 31
0.0
  0
LINE
  5
10B
330
2D
100
AcDbEntity
  8
0
100
AcDbLine
 10
-5.0
 20
5.0
 30
0.0
 11
-5.0
 21
-5.0
 31
0.0
  0
LINE
  5
10C
330
2D
100
AcDbEntity
  8
0
100
AcDbLine
 10
5.0
 20
5.0
 30
0.0
 11
-5.0
 21
5.0
 31
0.0
  0
LINE
  5
10D
330
2D
100
AcDbEntity
  8
0
100
AcDbLine
 10
5.0
 20
-5.0
 30
0.0
 11
5.0
 21
5.0
 31
0.0
  0
LINE
  5
10E
330
2D
100
AcDbEntity
  8
0
100
AcDbLine
 10
-5.0
 20
-5.0
 30
0.0
 11
5.0
 21
-5.0
 31
0.0
  0
ENDBLK
  5
10F
330
2D
100
AcDbEntity
  8
0
100
AcDbBlockEnd
  0
BLOCK
  5
11C
330
30
100
AcDbEntity
  8
0
100
AcDbBlockBegin
  2
GC007
 70
     0
 10
0.0
 20
0.0
 30
0.0
  3
GC007
  1

  0
LINE
  5
11D
330
30
100
AcDbEntity
  8
0
100
AcDbLine
 10
0.0
 20
-1.1
 30
0.0
 11
0.0
 21
0.3
 31
0.0
  0
ENDBLK
  5
11E
330
30
100
AcDbEntity
  8
0
100
AcDbBlockEnd
  0
BLOCK
  5
125
330
32
100
AcDbEntity
  8
0
100
AcDbBlockBegin
  2
GC009
 70
     0
 10
0.0
 20
0.0
 30
0.0
  3
GC009
  1

  0
LINE
  5
126
330
32
100
AcDbEntity
  8
0
100
AcDbLine
 10
0.0
 20
-0.9
 30
0.0
 11
0.0
 21
0.3
 31
0.0
  0
ENDBLK
  5
127
330
32
100
AcDbEntity
  8
0
100
AcDbBlockEnd
  0
BLOCK
  5
142
330
141
100
AcDbEntity
  8
0
100
AcDbBlockBegin
  2
GC200
 70
     0
 10
0.0
 20
0.0
 30
0.0
  3
GC200
  1

  0
LWPOLYLINE
  5
143
330
141
100
AcDbEntity
  8
0
  6
Continuous
100
AcDbPolyline
 90
        2
 70
   129
 43
0.2
 10
-0.1
 20
0.0
 42
1.0
 10
0.1
 20
0.0
 42
1.0
  0
ENDBLK
  5
147
330
141
100
AcDbEntity
  8
0
100
AcDbBlockEnd
  0
BLOCK
  5
20D
330
20C
100
AcDbEntity
  8
0
100
AcDbBlockBegin
  2
GC0850
 70
     0
 10
0.0
 20
0.0
 30
0.0
  3
GC0850
  1

  0
LINE
  5
20E
330
20C
100
AcDbEntity
  8
0
  6
Continuous
100
AcDbLine
 10
0.0
 20
-0.25
 30
0.0
 11
0.0
 21
0.25
 31
0.0
  0
ENDBLK
  5
20F
330
20C
100
AcDbEntity
  8
0
100
AcDbBlockEnd
  0
BLOCK
  5
21D
330
21C
100
AcDbEntity
  8
0
100
AcDbBlockBegin
  2
GC0000
 70
     0
 10
0.0
 20
0.0
 30
0.0
  3
GC0000
  1

  0
POINT
  5
21E
330
21C
100
AcDbEntity
  8
0
  6
Continuous
100
AcDbPoint
 10
0.0
 20
0.0
 30
0.0
  0
ENDBLK
  5
21F
330
21C
100
AcDbEntity
  8
0
100
AcDbBlockEnd
  0
ENDSEC
  0
SECTION
  2
ENTITIES
  0
POINT
  5
4BB
330
18
100
AcDbEntity
  8
ZDH
  6
Continuous
100
AcDbPoint
 10
487869.105
 20
3337347.577
 30
0.0
1001
NAME
1000
qj259
1001
CODE
1000

  0
TEXT
  5
4BE
330
18
100
AcDbEntity
  8
ZDH
  6
Continuous
100
AcDbText
 10
487869.355
 20
3337347.202
 30
0.0
 40
1.0
  1
qj259
 41
0.8
  7
HZ
100
AcDbText
  0
POINT
  5
4BF
330
18
100
AcDbEntity
  8
ZDH
  6
Continuous
100
AcDbPoint
 10
487821.365
 20
3337357.06
 30
0.0
1001
NAME
1000
qj260
1001
CODE
1000

  0
TEXT
  5
4C0
330
18
100
AcDbEntity
  8
ZDH
  6
Continuous
100
AcDbText
 10
487821.615
 20
3337356.685
 30
0.0
 40
1.0
  1
qj260
 41
0.8
  7
HZ
100
AcDbText
  0
POINT
  5
4C1
330
18
100
AcDbEntity
  8
ZDH
  6
Continuous
100
AcDbPoint
 10
487817.635
 20
3337314.148
 30
0.0
1001
NAME
1000
qj261
1001
CODE
1000

  0
TEXT
  5
4C2
330
18
100
AcDbEntity
  8
ZDH
  6
Continuous
100
AcDbText
 10
487817.8850000001
 20
3337313.773
 30
0.0
 40
1.0
  1
qj261
 41
0.8
  7
HZ
100
AcDbText
  0
POINT
  5
4C3
330
18
100
AcDbEntity
  8
ZDH
  6
Continuous
100
AcDbPoint
 10
487854.955
 20
3337299.009
 30
0.0
1001
NAME
1000
qj262
1001
CODE
1000

  0
TEXT
  5
4C4
330
18
100
AcDbEntity
  8
ZDH
  6
Continuous
100
AcDbText
 10
487855.205
 20
3337298.634
 30
0.0
 40
1.0
  1
qj262
 41
0.8
  7
HZ
100
AcDbText
  0
LWPOLYLINE
  5
4FE
330
18
100
AcDbEntity
  8
0
  6
Continuous
100
AcDbPolyline
 90
       26
 70
   129
 43
0.0
 10
487830.1862030391
 20
3337343.827051873
 10
487832.8658606792
 20
3337343.55971802
 10
487833.7797408931
 20
3337343.453101736
 10
487834.5774201887
 20
3337343.217339466
 10
487835.3028961395
 20
3337342.841433017
 10
487835.8599938253
 20
3337342.345120429
 10
487836.1264561284
 20
3337341.500630301
 10
487836.086184061
 20
3337340.857827203
 10
487835.6542544784
 20
3337340.198094994
 10
487835.3453173096
 20
3337339.924545921
 10
487834.9712270606
 20
3337339.674577344
 10
487835.164119205
 20
3337339.049393873
 10
487834.2325631076
 20
3337339.216532166
 10
487833.1287888835
 20
3337339.440332968
 10
487829.8509612264
 20
3337340.297959503
 10
487829.8923346929
 20
3337341.178380654
 10
487831.6487488478
 20
3337340.956392612
 10
487832.831463332
 20
3337340.860602836
 10
487833.2398012458
 20
3337340.863407136
 10
487833.6349921966
 20
3337340.999250242
 10
487833.8203437547
 20
3337341.395094027
 10
487833.7256031819
 20
3337341.741718562
 10
487833.4653297365
 20
3337342.008816993
 10
487833.1653372885
 20
3337342.120179775
 10
487832.1542206196
 20
3337342.232351359
 10
487830.0584969944
 20
3337342.438673904
  0
LWPOLYLINE
  5
4FF
330
18
100
AcDbEntity
  8
0
  6
Continuous
100
AcDbPolyline
 90
        4
 70
   129
 43
0.0
 10
487836.83166751
 20
3337338.765662954
 10
487838.9903257419
 20
3337338.398325801
 10
487839.5278613277
 20
3337342.913990785
 10
487837.204178128
 20
3337343.141226543
  0
LWPOLYLINE
  5
501
330
18
100
AcDbEntity
  8
0
  6
Continuous
100
AcDbPolyline
 90
        7
 70
   129
 43
0.0
 10
487840.0131874773
 20
3337342.879567809
 10
487842.2548206613
 20
3337342.682027495
 10
487843.6378664669
 20
3337338.363348368
 10
487845.8341494593
 20
3337342.314360248
 10
487848.0755770434
 20
3337342.065456112
 10
487845.6186160502
 20
3337337.591476718
 10
487841.5644340289
 20
3337338.042964734
  0
LWPOLYLINE
  5
503
330
18
100
AcDbEntity
  8
0
  6
Continuous
100
AcDbPolyline
 90
        3
 70
   129
 43
0.0
 10
487842.8502986574
 20
3337342.57685616
 10
487845.2588161424
 20
3337342.331948513
 10
487843.787086167
 20
3337339.593555744
  0
LWPOLYLINE
  5
505
330
18
100
AcDbEntity
  8
0
  6
Continuous
100
AcDbPolyline
 90
       37
 70
   129
 43
0.0
 10
487848.0887482433
 20
3337337.440573404
 10
487850.3788279769
 20
3337337.30236865
 10
487850.4173255692
 20
3337337.700582197
 10
487852.3910155571
 20
3337337.504229091
 10
487852.5761183666
 20
3337338.890888887
 10
487850.5383949045
 20
3337339.110416514
 10
487850.6815859696
 20
3337340.350727225
 10
487856.5554936997
 20
3337339.81368968
 10
487856.9065294906
 20
3337339.670198233
 10
487857.0454905705
 20
3337339.493831837
 10
487857.1067354379
 20
3337339.364318288
 10
487857.1515553038
 20
3337339.127656707
 10
487857.1085933036
 20
3337338.925603515
 10
487856.9854885514
 20
3337338.727011277
 10
487856.7559640002
 20
3337338.571664784
 10
487856.5175802279
 20
3337338.51981085
 10
487856.3097815838
 20
3337338.518384094
 10
487853.2750495048
 20
3337338.836279339
 10
487853.1171039161
 20
3337337.260381279
 10
487858.3374101555
 20
3337337.34263093
 10
487858.6901347151
 20
3337337.59814107
 10
487859.060015003
 20
3337337.908368173
 10
487859.241293034
 20
3337338.119127872
 10
487859.4092164831
 20
3337338.492917772
 10
487859.472067977
 20
3337338.860897987
 10
487859.4553572252
 20
3337339.293993605
 10
487859.3637953657
 20
3337339.680728152
 10
487859.1524962631
 20
3337340.03482578
 10
487858.8789068865
 20
3337340.34884603
 10
487858.5989887239
 20
3337340.555909371
 10
487858.168781843
 20
3337340.78758238
 10
487857.8131122029
 20
3337340.940203132
 10
487857.3624283073
 20
3337341.08174337
 10
487856.7740917343
 20
3337341.19368436
 10
487855.7260868805
 20
3337341.300045292
 10
487854.0464946946
 20
3337341.478612482
 10
487848.5537014285
 20
3337342.02485293
  0
LWPOLYLINE
  5
506
330
18
100
AcDbEntity
  8
0
  6
Continuous
100
AcDbPolyline
 90
       69
 70
   129
 43
0.0
 10
487827.9123905674
 20
3337340.707866322
 10
487828.7047739766
 20
3337340.396056671
 10
487829.3045526075
 20
3337340.189327969
 10
487829.8737316899
 20
3337339.989537071
 10
487830.4653949605
 20
3337339.781853865
 10
487831.0363754522
 20
3337339.612643646
 10
487831.80501916
 20
3337339.415806947
 10
487832.7897370625
 20
3337339.163637288
 10
487833.5692428493
 20
3337338.963297419
 10
487834.5260922555
 20
3337338.717378676
 10
487835.3163261145
 20
3337338.54975246
 10
487836.1562794006
 20
3337338.371579646
 10
487836.9552105483
 20
3337338.216129718
 10
487837.8204829338
 20
3337338.05227542
 10
487838.5547533746
 20
3337337.941088474
 10
487839.578047971
 20
3337337.786136028
 10
487840.2407378012
 20
3337337.685028818
 10
487841.2037783825
 20
3337337.538096813
 10
487842.0073091334
 20
3337337.451390181
 10
487842.9504985231
 20
3337337.349965761
 10
487843.5601684408
 20
3337337.271538506
 10
487844.7569424132
 20
3337337.151197421
 10
487845.7820585969
 20
3337337.073344174
 10
487846.993473547
 20
3337336.98477196
 10
487848.9199222555
 20
3337336.851985393
 10
487850.59523362
 20
3337336.763758191
 10
487851.9364445033
 20
3337336.768594893
 10
487852.9699604575
 20
3337336.779794662
 10
487854.0901044039
 20
3337336.805711857
 10
487855.6345229308
 20
3337336.841445653
 10
487856.9462549769
 20
3337336.91822195
 10
487859.171745702
 20
3337337.14424095
 10
487860.0171446365
 20
3337337.282957839
 10
487860.2757421855
 20
3337337.343555012
 10
487860.3129805941
 20
3337337.339840003
 10
487860.2933787592
 20
3337337.143355591
 10
487859.5088893681
 20
3337336.941371021
 10
487859.0675607004
 20
3337336.855685785
 10
487858.4833369791
 20
3337336.743411886
 10
487858.477053135
 20
3337336.677068117
 10
487858.5595380535
 20
3337336.421177975
 10
487859.303868597
 20
3337334.117476605
 10
487857.0397701702
 20
3337334.377037745
 10
487856.392400166
 20
3337336.418321919
 10
487855.3111547454
 20
3337336.326222102
 10
487855.1431328275
 20
3337334.540099578
 10
487852.8658367466
 20
3337334.776416597
 10
487853.0154370065
 20
3337336.188892012
 10
487852.2444354768
 20
3337336.193215064
 10
487852.1118726158
 20
3337334.855730574
 10
487847.8644468373
 20
3337335.302254422
 10
487847.9726205863
 20
3337336.264520314
 10
487844.9936438926
 20
3337336.478046205
 10
487844.5016001149
 20
3337335.632508549
 10
487842.2236153932
 20
3337335.837595778
 10
487841.8928439705
 20
3337336.746283401
 10
487838.8962177011
 20
3337337.241133355
 10
487838.8118829263
 20
3337336.15902689
 10
487836.5830066094
 20
3337336.427934477
 10
487836.6862679182
 20
3337337.644124283
 10
487835.5372009727
 20
3337337.882323917
 10
487835.9760354468
 20
3337336.462520415
 10
487833.6646341889
 20
3337336.698246326
 10
487833.1574133824
 20
3337338.50255036
 10
487831.9738175399
 20
3337338.875354036
 10
487831.7477761818
 20
3337336.839458552
 10
487829.5096772141
 20
3337337.093160078
 10
487829.7685427748
 20
3337339.628984872
 10
487827.9153940134
 20
3337340.541383222
  0
LWPOLYLINE
  5
507
330
18
100
AcDbEntity
  8
0
  6
Continuous
100
AcDbPolyline
 90
        4
 70
   129
 43
0.0
 10
487826.8916259917
 20
3337345.336455503
 10
487825.8362245611
 20
3337336.215063266
 10
487861.5931397731
 20
3337332.659286515
 10
487862.5775876101
 20
3337341.657435595
  0
LWPOLYLINE
  5
524
330
18
100
AcDbEntity
  8
0
  6
Continuous
100
AcDbPolyline
 90
       30
 70
   129
 43
0.0
 10
487827.5179869762
 20
3337334.375820806
 10
487828.6154851306
 20
3337334.269478978
 10
487828.4150041503
 20
3337332.095518099
 10
487832.2542138564
 20
3337331.714824305
 10
487832.1840457015
 20
3337330.923382382
 10
487829.9988034555
 20
3337331.12374745
 10
487830.1591883024
 20
3337330.773108535
 10
487830.3457792824
 20
3337330.365176862
 10
487830.730558908
 20
3337329.93157521
 10
487831.0613524
 20
3337329.641045869
 10
487831.6333556288
 20
3337329.264220939
 10
487831.9786480135
 20
3337329.076884837
 10
487831.9243534598
 20
3337328.331560219
 10
487831.4656076389
 20
3337328.499176759
 10
487830.7454260206
 20
3337328.839339867
 10
487830.1534959494
 20
3337329.238661836
 10
487829.7588759018
 20
3337329.603474529
 10
487829.3987850927
 20
3337330.047165468
 10
487829.3346593192
 20
3337329.283030984
 10
487828.6470074492
 20
3337328.996106789
 10
487828.3362439892
 20
3337328.892578958
 10
487828.0304135465
 20
3337328.798910817
 10
487827.5371384869
 20
3337328.680593269
 10
487826.9843550302
 20
3337328.573646814
 10
487827.0734599624
 20
3337329.696152744
 10
487827.2387997818
 20
3337331.407913774
 10
487826.4871538694
 20
3337331.463788953
 10
487826.5725793121
 20
3337332.268238976
 10
487827.3055893467
 20
3337332.168905245
 10
487827.5179869762
 20
3337334.375820806
  0
LWPOLYLINE
  5
525
330
18
100
AcDbEntity
  8
0
  6
Continuous
100
AcDbPolyline
 90
       15
 70
   129
 43
0.0
 10
487828.5966162144
 20
3337332.83181555
 10
487828.930223107
 20
3337332.854322843
 10
487829.686220224
 20
3337333.018387484
 10
487830.2132582859
 20
3337333.238579328
 10
487830.5804569304
 20
3337333.497628535
 10
487830.926821983
 20
3337333.800690351
 10
487832.2357771438
 20
3337333.679800758
 10
487832.0154580825
 20
3337333.425068875
 10
487831.7044192417
 20
3337333.096939773
 10
487831.2119411556
 20
3337332.74290582
 10
487830.6805829399
 20
3337332.475221604
 10
487830.1615290391
 20
3337332.313764087
 10
487829.5524115053
 20
3337332.197191817
 10
487828.986493314
 20
3337332.149699625
 10
487828.5631348656
 20
3337332.158334456
  0
LWPOLYLINE
  5
526
330
18
100
AcDbEntity
  8
0
  6
Continuous
100
AcDbPolyline
 90
       10
 70
   129
 43
0.0
 10
487836.1366345097
 20
3337333.493905382
 10
487836.2599539803
 20
3337333.172090367
 10
487836.3764224912
 20
3337332.72702706
 10
487836.4449333431
 20
3337332.323046516
 10
487836.4723378091
 20
3337332.117632515
 10
487837.4657454744
 20
3337332.021772791
 10
487837.4451922816
 20
3337332.295657946
 10
487837.3766814298
 20
3337332.610625864
 10
487837.2807661118
 20
3337332.994065115
 10
487837.1300421751
 20
3337333.398045659
  0
LWPOLYLINE
  5
527
330
18
100
AcDbEntity
  8
0
  6
Continuous
100
AcDbPolyline
 90
       11
 70
   129
 43
0.0
 10
487836.1229322766
 20
3337332.028619889
 10
487837.0615313232
 20
3337331.925912889
 10
487837.143744408
 20
3337331.686263402
 10
487837.2807661118
 20
3337331.268588664
 10
487837.3835323895
 20
3337330.850913746
 10
487837.4246387751
 20
3337330.52909873
 10
487836.3558692984
 20
3337330.624958453
 10
487836.3832734509
 20
3337330.850913746
 10
487836.3421670652
 20
3337331.220658622
 10
487836.2599539803
 20
3337331.521932346
 10
487836.1571877025
 20
3337331.843747362
  0
LWPOLYLINE
  5
529
330
18
100
AcDbEntity
  8
0
  6
Continuous
100
AcDbPolyline
 90
       13
 70
   129
 43
0.0
 10
487836.4450506464
 20
3337330.483853884
 10
487837.4179051188
 20
3337330.408535454
 10
487837.3082875676
 20
3337329.792293812
 10
487837.1298781383
 20
3337329.178319127
 10
487836.8499604635
 20
3337328.399458248
 10
487836.6004792664
 20
3337327.799702312
 10
487835.460958254
 20
3337327.914262347
 10
487835.5991843566
 20
3337328.123166185
 10
487835.801465976
 20
3337328.500540674
 10
487835.9632917105
 20
3337328.908240054
 10
487836.1682757908
 20
3337329.424671402
 10
487836.3071604582
 20
3337329.87328269
 10
487836.4049297351
 20
3337330.314676091
  0
LWPOLYLINE
  5
52A
330
18
100
AcDbEntity
  8
0
  6
Continuous
100
AcDbPolyline
 90
        9
 70
   129
 43
0.0
 10
487837.7297904889
 20
3337332.063032926
 10
487840.033403506
 20
3337331.838840541
 10
487839.7918258631
 20
3337329.295120933
 10
487839.6954730096
 20
3337329.023453984
 10
487839.6031457967
 20
3337328.868672312
 10
487839.451252903
 20
3337328.72579674
 10
487839.2338375721
 20
3337328.654359045
 10
487838.944943048
 20
3337328.642452763
 10
487837.4251697771
 20
3337328.79378957
  0
LWPOLYLINE
  5
52B
330
18
100
AcDbEntity
  8
0
  6
Continuous
100
AcDbPolyline
 90
        7
 70
   129
 43
0.0
 10
487838.4196783382
 20
3337329.459152115
 10
487838.7143063028
 20
3337329.429706341
 10
487838.7897311571
 20
3337329.439198159
 10
487838.8332262673
 20
3337329.486808179
 10
487838.8477248464
 20
3337329.530278065
 10
487838.9968325677
 20
3337331.203687577
 10
487838.5821103496
 20
3337331.23757624
  0
LWPOLYLINE
  5
52C
330
18
100
AcDbEntity
  8
0
  6
Continuous
100
AcDbPolyline
 90
       20
 70
   129
 43
0.0
 10
487837.6291501007
 20
3337333.200659005
 10
487841.8586747555
 20
3337332.813563699
 10
487841.7812108915
 20
3337332.054856993
 10
487841.35774204
 20
3337332.096147168
 10
487840.9998420451
 20
3337328.101087566
 10
487840.9350801985
 20
3337327.911487027
 10
487840.8780434417
 20
3337327.766127735
 10
487840.8038960658
 20
3337327.657820984
 10
487840.6812675564
 20
3337327.555214542
 10
487840.5329724907
 20
3337327.489660461
 10
487840.3048264049
 20
3337327.455458253
 10
487839.1270218167
 20
3337327.549514234
 10
487839.2011691928
 20
3337328.327613105
 10
487839.8057567438
 20
3337328.256358536
 10
487839.8590799371
 20
3337328.269080613
 10
487839.9053909571
 20
3337328.291521528
 10
487839.9418782848
 20
3337328.320975037
 10
487839.9657354197
 20
3337328.386894832
 10
487840.3018132119
 20
3337332.191948427
 10
487837.5555892418
 20
3337332.450334745
  0
LWPOLYLINE
  5
52D
330
18
100
AcDbEntity
  8
0
  6
Continuous
100
AcDbPolyline
 90
       62
 70
   129
 43
0.0
 10
487845.9653384897
 20
3337332.756523561
 10
487845.9010414658
 20
3337332.604201685
 10
487845.8211195616
 20
3337332.394527924
 10
487845.7087293837
 20
3337332.247257137
 10
487845.5988367655
 20
3337332.169877363
 10
487845.4814514687
 20
3337332.094993902
 10
487845.3091198628
 20
3337332.030094976
 10
487845.1928743539
 20
3337330.861109648
 10
487846.1437836745
 20
3337330.769268095
 10
487845.9970317451
 20
3337330.613922831
 10
487845.8384221319
 20
3337330.518811985
 10
487845.5915429382
 20
3337330.4057819
 10
487845.3662042936
 20
3337330.329422993
 10
487845.1703561718
 20
3337330.292205854
 10
487845.1069122639
 20
3337329.674675311
 10
487845.2751762004
 20
3337329.693973214
 10
487845.4379234257
 20
3337329.722919978
 10
487845.6489428964
 20
3337329.761515604
 10
487845.6654936584
 20
3337329.736704117
 10
487845.4088522471
 20
3337326.964881707
 10
487849.2262428871
 20
3337326.629056973
 10
487849.3586681152
 20
3337326.634164548
 10
487849.5117412571
 20
3337326.659573803
 10
487849.6595178667
 20
3337326.695570039
 10
487849.7853653202
 20
3337326.760825505
 10
487849.9040102176
 20
3337326.849757721
 10
487850.0206258283
 20
3337326.998852758
 10
487850.0996077367
 20
3337327.190229156
 10
487850.1451591071
 20
3337327.355388959
 10
487850.1682349511
 20
3337327.50258815
 10
487850.192807198
 20
3337327.774420596
 10
487850.3340107377
 20
3337329.353578951
 10
487848.2130081184
 20
3337329.549564814
 10
487848.2569821652
 20
3337330.033291384
 10
487848.1316459538
 20
3337330.084535692
 10
487847.9609795101
 20
3337330.154313482
 10
487847.7955167237
 20
3337330.24965628
 10
487847.6663825784
 20
3337330.371124215
 10
487847.5315456121
 20
3337330.497956416
 10
487847.4269308249
 20
3337330.635167847
 10
487847.4321749784
 20
3337330.651547058
 10
487847.6694820236
 20
3337330.629926435
 10
487848.3599027566
 20
3337330.569376133
 10
487848.2856892014
 20
3337329.700135476
 10
487850.0797536599
 20
3337329.538720412
 10
487850.2036289103
 20
3337329.560871708
 10
487850.321460211
 20
3337329.592275209
 10
487850.4392915117
 20
3337329.647231517
 10
487850.5545041859
 20
3337329.738825003
 10
487850.6147291496
 20
3337329.813408409
 10
487850.6893554622
 20
3337329.937714087
 10
487850.7181587877
 20
3337330.067253441
 10
487850.7612581294
 20
3337330.261087339
 10
487850.9085328538
 20
3337331.976916867
 10
487848.4877064177
 20
3337332.185223294
 10
487848.4106446473
 20
3337331.194046092
 10
487847.3351317911
 20
3337331.294503226
 10
487847.3920904501
 20
3337331.666194677
 10
487848.3000780047
 20
3337331.579131683
 10
487848.3670880625
 20
3337332.201966059
 10
487846.7387413664
 20
3337332.352651852
 10
487846.8593597215
 20
3337332.65737188
  0
LWPOLYLINE
  5
52E
330
18
100
AcDbEntity
  8
0
  6
Continuous
100
AcDbPolyline
 90
       10
 70
   129
 43
0.0
 10
487846.2671445465
 20
3337331.768067354
 10
487846.4314650177
 20
3337331.756337003
 10
487846.3845163564
 20
3337331.375099227
 10
487845.2739874838
 20
3337331.493223574
 10
487845.2770263957
 20
3337331.516507088
 10
487845.5667197749
 20
3337331.52865496
 10
487845.8158967358
 20
3337331.576234399
 10
487845.9769502752
 20
3337331.62482625
 10
487846.0995129191
 20
3337331.671393456
 10
487846.195739687
 20
3337331.72099754
  0
LWPOLYLINE
  5
52F
330
18
100
AcDbEntity
  8
0
  6
Continuous
100
AcDbPolyline
 90
        7
 70
   129
 43
0.0
 10
487849.3711232935
 20
3337331.439548612
 10
487849.9267921757
 20
3337331.385671457
 10
487849.8397097436
 20
3337330.374440819
 10
487849.8045064809
 20
3337330.320160534
 10
487849.7733774738
 20
3337330.285035318
 10
487849.7241733874
 20
3337330.25091352
 10
487849.2602508465
 20
3337330.292060325
  0
LWPOLYLINE
  5
530
330
18
100
AcDbEntity
  8
0
  6
Continuous
100
AcDbPolyline
 90
       65
 70
   129
 43
0.0
 10
487855.6994472857
 20
3337331.810077084
 10
487855.5873287249
 20
3337331.622120187
 10
487855.2922378194
 20
3337331.270285373
 10
487855.0282091143
 20
3337331.001235082
 10
487854.7693574429
 20
3337330.820143631
 10
487854.5985153397
 20
3337330.664922311
 10
487854.5208598382
 20
3337329.935382371
 10
487855.4061325548
 20
3337329.852597666
 10
487855.9083047975
 20
3337329.816379449
 10
487856.4156540738
 20
3337329.800857406
 10
487856.731453113
 20
3337329.816379449
 10
487856.75404312
 20
3337329.599869923
 10
487857.6154279643
 20
3337329.517710511
 10
487857.6438505239
 20
3337329.317098275
 10
487857.7182604213
 20
3337329.127639848
 10
487857.9078284183
 20
3337328.932869492
 10
487858.1948379327
 20
3337328.83194303
 10
487859.6130082373
 20
3337328.710912043
 10
487859.800625359
 20
3337328.747942099
 10
487859.9910834822
 20
3337328.832730581
 10
487860.1214559002
 20
3337329.002683155
 10
487860.2178178495
 20
3337329.288770148
 10
487860.278544646
 20
3337329.816172577
 10
487859.4278005406
 20
3337329.901768399
 10
487859.4278005406
 20
3337329.576504021
 10
487859.4278005406
 20
3337329.539825828
 10
487859.3878515071
 20
3337329.498594656
 10
487859.2763128769
 20
3337329.481146547
 10
487858.7286485428
 20
3337329.538834462
 10
487858.6855376486
 20
3337329.562510132
 10
487858.6464520811
 20
3337329.61255962
 10
487858.6379021036
 20
3337329.668712726
 10
487858.6583439521
 20
3337330.032094586
 10
487858.8419087733
 20
3337330.048559604
 10
487859.0587968659
 20
3337330.075899064
 10
487859.2541917701
 20
3337330.120813813
 10
487859.3929222146
 20
3337330.173540043
 10
487859.5590078831
 20
3337330.243841563
 10
487859.7071209679
 20
3337330.306535563
 10
487859.8247450153
 20
3337330.398114331
 10
487860.0263965209
 20
3337330.57057437
 10
487860.157311232
 20
3337330.742422429
 10
487860.2823639078
 20
3337330.914270488
 10
487860.4545694283
 20
3337331.196329596
 10
487859.4639174529
 20
3337331.280300846
 10
487859.3929369561
 20
3337331.182288937
 10
487859.3284567632
 20
3337331.104176117
 10
487859.246390778
 20
3337331.028016168
 10
487859.1408775925
 20
3337330.951856218
 10
487859.0233301409
 20
3337330.880265798
 10
487858.8946799506
 20
3337330.82687578
 10
487858.8033438576
 20
3337330.785364161
 10
487858.7614317165
 20
3337330.767628771
 10
487858.7239322548
 20
3337330.784926133
 10
487858.7858694095
 20
3337331.500239227
 10
487857.8016048257
 20
3337331.583853398
 10
487857.6553961302
 20
3337329.955132154
 10
487857.5545503043
 20
3337330.247068583
 10
487857.4571818663
 20
3337330.559857511
 10
487857.3146067546
 20
3337330.869171172
 10
487857.2293464832
 20
3337331.054141511
 10
487856.4059715221
 20
3337331.127244304
 10
487856.5763660531
 20
3337331.33229493
 10
487856.5763660531
 20
3337331.33229493
 10
487856.899768174
 20
3337331.697215376
  0
LWPOLYLINE
  5
531
330
18
100
AcDbEntity
  8
0
  6
Continuous
100
AcDbPolyline
 90
       24
 70
   129
 43
0.0
 10
487854.6864182685
 20
3337329.754233895
 10
487854.331691112
 20
3337326.100088434
 10
487855.3059419343
 20
3337326.014937116
 10
487855.4059600498
 20
3337327.110798474
 10
487856.2135139085
 20
3337327.033051547
 10
487856.1983033539
 20
3337326.920208907
 10
487856.1873659064
 20
3337326.832760773
 10
487856.1746058645
 20
3337326.776283686
 10
487856.1581996931
 20
3337326.739846904
 10
487856.1235647562
 20
3337326.714341228
 10
487856.0743468693
 20
3337326.703410121
 10
487855.6915393404
 20
3337326.734381351
 10
487855.6186289824
 20
3337326.019491354
 10
487856.3787753165
 20
3337325.9484397
 10
487856.4796939083
 20
3337325.949851105
 10
487856.5910724021
 20
3337325.951408798
 10
487856.6875035304
 20
3337325.984465977
 10
487856.7736706816
 20
3337326.014004601
 10
487856.8880218346
 20
3337326.095598237
 10
487856.946354261
 20
3337326.183046552
 10
487857.0138012271
 20
3337326.283247703
 10
487857.053904888
 20
3337326.388914231
 10
487857.12300858
 20
3337326.570991053
 10
487857.3993246129
 20
3337329.499949936
  0
LWPOLYLINE
  5
532
330
18
100
AcDbEntity
  8
0
  6
Continuous
100
AcDbPolyline
 90
       45
 70
   129
 43
0.0
 10
487857.5490473931
 20
3337328.863078318
 10
487858.5558853607
 20
3337328.766391646
 10
487858.4838453691
 20
3337327.917179779
 10
487858.636534609
 20
3337327.974045964
 10
487858.7646701069
 20
3337328.038995799
 10
487858.9205566494
 20
3337328.154410846
 10
487859.0617432522
 20
3337328.297456231
 10
487859.21746764
 20
3337328.521104093
 10
487860.198599532
 20
3337328.436389004
 10
487860.1593753334
 20
3337328.312511822
 10
487860.0652368174
 20
3337328.143160436
 10
487859.9789432039
 20
3337327.991058023
 10
487859.8345978765
 20
3337327.823274905
 10
487859.5954305998
 20
3337327.599295148
 10
487859.4523643192
 20
3337327.471362558
 10
487859.2189408332
 20
3337327.343429969
 10
487859.0131263102
 20
3337327.285735038
 10
487858.7847227214
 20
3337327.215497559
 10
487858.5588289241
 20
3337327.170344817
 10
487858.4082329549
 20
3337327.175361908
 10
487858.375603781
 20
3337326.696241923
 10
487858.3781138864
 20
3337326.623496078
 10
487858.4038638724
 20
3337326.594704198
 10
487858.4623123477
 20
3337326.543012508
 10
487858.5161953983
 20
3337326.513019152
 10
487859.0733569197
 20
3337326.470307857
 10
487859.1012848602
 20
3337326.496474983
 10
487859.1292124872
 20
3337326.555787293
 10
487859.1379399882
 20
3337326.595910171
 10
487859.1588858653
 20
3337326.913404623
 10
487860.0080504519
 20
3337326.83473289
 10
487859.9333959109
 20
3337326.230148565
 10
487859.8805582409
 20
3337326.066063057
 10
487859.7927726154
 20
3337325.912546719
 10
487859.7025189131
 20
3337325.834047859
 10
487859.5157520845
 20
3337325.762524357
 10
487859.3726224475
 20
3337325.731123734
 10
487859.1963285574
 20
3337325.71891254
 10
487857.9028329856
 20
3337325.826326503
 10
487857.7338482914
 20
3337325.885057773
 10
487857.5733840921
 20
3337325.968538826
 10
487857.4392977971
 20
3337326.126713197
 10
487857.4019294393
 20
3337326.267312458
 10
487857.3409661252
 20
3337326.496688255
 10
487857.3577938649
 20
3337326.720427217
  0
LWPOLYLINE
  5
534
330
18
100
AcDbEntity
  8
0
  6
Continuous
100
AcDbPolyline
 90
        4
 70
   129
 43
0.0
 10
487846.6037633771
 20
3337328.929004408
 10
487846.5881372424
 20
3337328.624473623
 10
487849.236741858
 20
3337328.405836375
 10
487849.2601805899
 20
3337328.694749957
  0
LWPOLYLINE
  5
535
330
18
100
AcDbEntity
  8
0
  6
Continuous
100
AcDbPolyline
 90
        7
 70
   129
 43
0.0
 10
487846.4932315492
 20
3337327.984469784
 10
487846.4798608395
 20
3337327.625333835
 10
487849.0257910757
 20
3337327.375117335
 10
487849.0713264501
 20
3337327.394550873
 10
487849.1153180613
 20
3337327.437074725
 10
487849.1424545969
 20
3337327.483180372
 10
487849.1701843908
 20
3337327.709357971
  0
LWPOLYLINE
  5
536
330
18
100
AcDbEntity
  8
0
  6
Continuous
100
AcDbPolyline
 90
        4
 70
   129
 43
0.0
 10
487855.5750956076
 20
3337328.971605251
 10
487855.5528142277
 20
3337328.704385147
 10
487856.3623653813
 20
3337328.62644592
 10
487856.3846464475
 20
3337328.889954744
  0
LWPOLYLINE
  5
538
330
18
100
AcDbEntity
  8
0
  6
Continuous
100
AcDbPolyline
 90
        4
 70
   129
 43
0.0
 10
487856.2767341872
 20
3337327.686456901
 10
487855.4560426573
 20
3337327.760684667
 10
487855.4894644135
 20
3337328.046461712
 10
487856.3019526843
 20
3337327.96233369
  0
LWPOLYLINE
  5
539
330
18
100
AcDbEntity
  8
0
  6
Continuous
100
AcDbPolyline
 90
       15
 70
   129
 43
0.0
 10
487846.7686578198
 20
3337330.215894079
 10
487846.9313140878
 20
3337330.034471453
 10
487847.0451404485
 20
3337329.945644653
 10
487847.1807968533
 20
3337329.845909231
 10
487847.3180120761
 20
3337329.760199179
 10
487847.4536684807
 20
3337329.694747814
 10
487847.6188003046
 20
3337329.615075179
 10
487845.7672496839
 20
3337329.77405995
 10
487845.8365509225
 20
3337329.797831681
 10
487845.9666633284
 20
3337329.830954377
 10
487846.1237803024
 20
3337329.875117913
 10
487846.2870343788
 20
3337329.935229466
 10
487846.4205935562
 20
3337329.984407103
 10
487846.5398944793
 20
3337330.054225912
 10
487846.6638694693
 20
3337330.140099484
  0
LWPOLYLINE
  5
53A
330
18
100
AcDbEntity
  8
0
  6
Continuous
100
AcDbPolyline
 90
       16
 70
   129
 43
0.0
 10
487828.3613039549
 20
3337331.294929562
 10
487828.8532695442
 20
3337331.233469565
 10
487828.8921239548
 20
3337331.116073766
 10
487828.9609001508
 20
3337330.896117036
 10
487829.05443584
 20
3337330.667911878
 10
487829.1452205441
 20
3337330.480948685
 10
487829.2552624578
 20
3337330.282987646
 10
487829.3377938928
 20
3337330.131767406
 10
487829.1452205441
 20
3337330.085026608
 10
487828.8343520129
 20
3337329.988795416
 10
487828.577150068
 20
3337329.909177031
 10
487828.371878201
 20
3337329.861771983
 10
487828.2068153306
 20
3337329.839776291
 10
487828.2315748239
 20
3337330.05973302
 10
487828.2700895564
 20
3337330.463903527
 10
487828.322359528
 20
3337331.019294272
  0
LWPOLYLINE
  5
53B
330
18
100
AcDbEntity
  8
0
  6
Continuous
100
AcDbPolyline
 90
        9
 70
   129
 43
0.0
 10
487856.342077219
 20
3337331.06358319
 10
487856.3699872818
 20
3337331.061437479
 10
487856.5739475321
 20
3337330.55505017
 10
487855.8353969488
 20
3337330.593672958
 10
487855.8203683087
 20
3337330.621567194
 10
487855.9513322622
 20
3337330.705249722
 10
487856.0608265506
 20
3337330.793223852
 10
487856.1638801277
 20
3337330.876906559
 10
487856.2733747298
 20
3337330.992774745
  0
ENDSEC
  0
SECTION
  2
OBJECTS
  0
DICTIONARY
  5
C
330
0
100
AcDbDictionary
281
     1
  3
ACAD_COLOR
350
4AC
  3
ACAD_GROUP
350
D
  3
ACAD_IMAGE_DICT
350
4F9
  3
ACAD_IMAGE_VARS
350
4FA
  3
ACAD_LAYOUT
350
241
  3
ACAD_MATERIAL
350
497
  3
ACAD_MLINESTYLE
350
E
  3
ACAD_PLOTSETTINGS
350
242
  3
ACAD_PLOTSTYLENAME
350
23F
  3
ACAD_TABLESTYLE
350
4AD
  3
ACAD_VISUALSTYLE
350
49B
  3
AcDbVariableDictionary
350
362
  0
DICTIONARY
  5
4F4
330
18
100
AcDbDictionary
280
     1
281
     1
  3
ACAD_SORTENTS
360
4F5
  0
DICTIONARY
  5
4AC
102
{ACAD_REACTORS
330
C
102
}
330
C
100
AcDbDictionary
281
     1
  0
DICTIONARY
  5
D
102
{ACAD_REACTORS
330
C
102
}
330
0
100
AcDbDictionary
281
     1
  0
DICTIONARY
  5
4F9
102
{ACAD_REACTORS
330
C
102
}
330
C
100
AcDbDictionary
281
     1
  3
ł¤şÓÖÇÄÜLOGO
350
4FB
  0
RASTERVARIABLES
  5
4FA
102
{ACAD_REACTORS
330
C
102
}
330
C
100
AcDbRasterVariables
 90
        0
 70
     1
 71
     1
 72
     0
  0
DICTIONARY
  5
241
102
{ACAD_REACTORS
330
C
102
}
330
C
100
AcDbDictionary
281
     1
  3
Layout1
350
244
  3
Model
350
243
  0
DICTIONARY
  5
497
102
{ACAD_REACTORS
330
C
102
}
330
C
100
AcDbDictionary
281
     1
  3
ByBlock
350
499
  3
ByLayer
350
498
  3
Global
350
49A
  0
DICTIONARY
  5
E
102
{ACAD_REACTORS
330
C
102
}
330
0
100
AcDbDictionary
281
     1
  3
STANDARD
350
1B
  0
DICTIONARY
  5
242
102
{ACAD_REACTORS
330
C
102
}
330
C
100
AcDbDictionary
281
     1
  0
ACDBDICTIONARYWDFLT
  5
23F
102
{ACAD_REACTORS
330
C
102
}
330
C
100
AcDbDictionary
281
     1
  3
Normal
350
240
100
AcDbDictionaryWithDefault
340
240
  0
DICTIONARY
  5
4AD
102
{ACAD_REACTORS
330
C
102
}
330
C
100
AcDbDictionary
281
     1
  3
Standard
350
4AE
  0
DICTIONARY
  5
49B
102
{ACAD_REACTORS
330
C
102
}
330
C
100
AcDbDictionary
281
     1
  3
2dWireframe
350
4A1
  3
3D Hidden
350
4A3
  3
3dWireframe
350
4A2
  3
Basic
350
4A0
  3
Brighten
350
4A7
  3
ColorChange
350
4AB
  3
Conceptual
350
4A4
  3
Dim
350
4A6
  3
Facepattern
350
4AA
  3
Flat
350
49C
  3
FlatWithEdges
350
49D
  3
Gouraud
350
49E
  3
GouraudWithEdges
350
49F
  3
Linepattern
350
4A9
  3
Realistic
350
4A5
  3
Thicken
350
4A8
  0
DICTIONARY
  5
362
102
{ACAD_REACTORS
330
C
102
}
330
C
100
AcDbDictionary
281
     1
  3
CTABLESTYLE
350
4F6
  3
DIMASSOC
350
363
  0
SORTENTSTABLE
  5
4F5
102
{ACAD_REACTORS
330
4F4
102
}
330
4F4
100
AcDbSortentsTable
330
18
331
4C3
  5
4C3
331
4C1
  5
4C1
331
4BE
  5
4BE
331
4C4
  5
4C4
331
4BF
  5
4BF
331
4C2
  5
4C2
331
4C0
  5
4C0
331
4BB
  5
4BB
  0
IMAGEDEF
  5
4FB
102
{ACAD_REACTORS
330
4F9
330
4FC
330
51A
102
}
330
4F9
100
AcDbRasterImageDef
 90
        0
  1
C:\Users\64513.ËľĎëĽŇ\Desktop\ł¤şÓÖÇÄÜLOGO.jpg
 10
1919.0
 20
952.0
 11
0.0005211047420532
 21
0.0005211047420532
280
     1
281
     0
  0
LAYOUT
  5
244
102
{ACAD_REACTORS
330
241
102
}
330
241
100
AcDbPlotSettings
  1

  2
HP LaserJet 6L PCL
  4

  6

 40
0.0
 41
0.0
 42
0.0
 43
0.0
 44
0.0
 45
0.0
 46
0.0
 47
0.0
 48
0.0
 49
0.0
140
0.0
141
0.0
142
1.0
143
1.0
 70
   688
 72
     0
 73
     0
 74
     5
  7

 75
    16
147
1.0
 76
     0
 77
     2
 78
   300
148
0.0
149
0.0
100
AcDbLayout
  1
Layout1
 70
     0
 71
     1
 10
0.0
 20
0.0
 11
12.0
 21
9.0
 12
0.0
 22
0.0
 32
0.0
 14
1.000000000000000E+20
 24
1.000000000000000E+20
 34
1.000000000000000E+20
 15
-1.000000000000000E+20
 25
-1.000000000000000E+20
 35
-1.000000000000000E+20
146
0.0
 13
0.0
 23
0.0
 33
0.0
 16
1.0
 26
0.0
 36
0.0
 17
0.0
 27
1.0
 37
0.0
 76
     0
330
15
  0
LAYOUT
  5
243
102
{ACAD_REACTORS
330
241
102
}
330
241
100
AcDbPlotSettings
  1

  2
HP LaserJet 6L PCL
  4

  6

 40
0.0
 41
0.0
 42
0.0
 43
0.0
 44
0.0
 45
0.0
 46
0.0
 47
0.0
 48
0.0
 49
0.0
140
0.0
141
0.0
142
1.0
143
1.0
 70
  1712
 72
     0
 73
     0
 74
     0
  7

 75
     0
147
1.0
 76
     0
 77
     2
 78
   300
148
0.0
149
0.0
100
AcDbLayout
  1
Model
 70
     1
 71
     0
 10
0.0
 20
0.0
 11
12.0
 21
9.0
 12
0.0
 22
0.0
 32
0.0
 14
0.0
 24
0.0
 34
0.0
 15
0.0
 25
0.0
 35
0.0
146
0.0
 13
0.0
 23
0.0
 33
0.0
 16
1.0
 26
0.0
 36
0.0
 17
0.0
 27
1.0
 37
0.0
 76
     0
330
18
331
495
  0
MATERIAL
  5
499
102
{ACAD_XDICTIONARY
360
556
102
}
102
{ACAD_REACTORS
330
497
102
}
330
497
100
AcDbMaterial
  1
ByBlock
  0
MATERIAL
  5
498
102
{ACAD_XDICTIONARY
360
554
102
}
102
{ACAD_REACTORS
330
497
102
}
330
497
100
AcDbMaterial
  1
ByLayer
  0
MATERIAL
  5
49A
102
{ACAD_XDICTIONARY
360
558
102
}
102
{ACAD_REACTORS
330
497
102
}
330
497
100
AcDbMaterial
  1
Global
  0
MLINESTYLE
  5
1B
102
{ACAD_REACTORS
330
E
102
}
330
0
100
AcDbMlineStyle
  2
STANDARD
 70
     0
  3

 62
     0
 51
90.0
 52
90.0
 71
     2
 49
0.5
 62
   256
  6
BYLAYER
 49
-0.5
 62
   256
  6
BYLAYER
  0
ACDBPLACEHOLDER
  5
240
102
{ACAD_REACTORS
330
23F
102
}
330
23F
  0
TABLESTYLE
  5
4AE
102
{ACAD_XDICTIONARY
360
55A
102
}
102
{ACAD_REACTORS
330
4AD
102
}
330
4AD
100
AcDbTableStyle
  3
Standard
 70
     0
 71
     0
 40
1.5
 41
1.5
280
     0
281
     0
  7
STANDARD
140
4.5
170
     2
 62
     0
 63
     7
283
     0
274
    -2
284
     1
 64
     0
275
    -2
285
     1
 65
     0
276
    -2
286
     1
 66
     0
277
    -2
287
     1
 67
     0
278
    -2
288
     1
 68
     0
279
    -2
289
     1
 69
     0
  7
STANDARD
140
6.0
170
     5
 62
     0
 63
     7
283
     0
274
    -2
284
     1
 64
     0
275
    -2
285
     1
 65
     0
276
    -2
286
     1
 66
     0
277
    -2
287
     1
 67
     0
278
    -2
288
     1
 68
     0
279
    -2
289
     1
 69
     0
  7
STANDARD
140
4.5
170
     5
 62
     0
 63
     7
283
     0
274
    -2
284
     1
 64
     0
275
    -2
285
     1
 65
     0
276
    -2
286
     1
 66
     0
277
    -2
287
     1
 67
     0
278
    -2
288
     1
 68
     0
279
    -2
289
     1
 69
     0
  0
VISUALSTYLE
  5
4A1
102
{ACAD_REACTORS
330
49B
102
}
330
49B
100
AcDbVisualStyle
  2
2dWireframe
 70
     4
 71
     0
 72
     2
 73
     0
 90
        0
 40
-0.6
 41
-30.0
 62
     5
 63
     7
421
 16777215
 74
     1
 91
        4
 64
     7
 65
   257
 75
     1
175
     1
 42
1.0
 92
        0
 66
   257
 43
1.0
 76
     1
 77
     6
 78
     2
 67
     7
 79
     5
170
     0
171
     0
290
     0
174
     0
 93
        1
 44
0.0
173
     0
291
     0
 45
0.0
1001
ACAD
1000
AcDbSavedByObjectVersion
1070
     0
  0
VISUALSTYLE
  5
4A3
102
{ACAD_REACTORS
330
49B
102
}
330
49B
100
AcDbVisualStyle
  2
3D Hidden
 70
     6
 71
     1
 72
     2
 73
     2
 90
        0
 40
-0.6
 41
-30.0
 62
     5
 63
     7
421
 16777215
 74
     2
 91
        2
 64
     7
 65
   257
 75
     2
175
     1
 42
40.0
 92
        0
 66
   257
 43
1.0
 76
     1
 77
     6
 78
     2
 67
     7
 79
     3
170
     0
171
     0
290
     0
174
     0
 93
        1
 44
0.0
173
     0
291
     0
 45
0.0
1001
ACAD
1000
AcDbSavedByObjectVersion
1070
     0
  0
VISUALSTYLE
  5
4A2
102
{ACAD_REACTORS
330
49B
102
}
330
49B
100
AcDbVisualStyle
  2
3dWireframe
 70
     5
 71
     0
 72
     2
 73
     0
 90
        0
 40
-0.6
 41
-30.0
 62
     5
 63
     7
421
 16777215
 74
     1
 91
        4
 64
     7
 65
   257
 75
     1
175
     1
 42
1.0
 92
        0
 66
   257
 43
1.0
 76
     1
 77
     6
 78
     2
 67
     7
 79
     5
170
     0
171
     0
290
     0
174
     0
 93
        1
 44
0.0
173
     0
291
     0
 45
0.0
1001
ACAD
1000
AcDbSavedByObjectVersion
1070
     0
  0
VISUALSTYLE
  5
4A0
102
{ACAD_REACTORS
330
49B
102
}
330
49B
100
AcDbVisualStyle
  2
Basic
 70
     7
 71
     1
 72
     0
 73
     1
 90
        0
 40
-0.6
 41
-30.0
 62
     5
 63
     7
421
 16777215
 74
     0
 91
        4
 64
     7
 65
   257
 75
     1
175
     1
 42
1.0
 92
        8
 66
     7
 43
1.0
 76
     1
 77
     6
 78
     2
 67
     7
 79
     5
170
     0
171
     0
290
     0
174
     0
 93
        1
 44
0.0
173
     0
291
     1
 45
0.0
1001
ACAD
1000
AcDbSavedByObjectVersion
1070
     0
  0
VISUALSTYLE
  5
4A7
102
{ACAD_REACTORS
330
49B
102
}
330
49B
100
AcDbVisualStyle
  2
Brighten
 70
    12
 71
     2
 72
     2
 73
     0
 90
        0
 40
-0.6
 41
-30.0
 62
     5
 63
     7
421
 16777215
 74
     1
 91
        4
 64
     7
 65
   257
 75
     1
175
     1
 42
1.0
 92
        8
 66
     7
 43
1.0
 76
     1
 77
     6
 78
     2
 67
     7
 79
     5
170
     0
171
     0
290
     0
174
     0
 93
        1
 44
50.0
173
     0
291
     1
 45
0.0
1001
ACAD
1000
AcDbSavedByObjectVersion
1070
     0
  0
VISUALSTYLE
  5
4AB
102
{ACAD_REACTORS
330
49B
102
}
330
49B
100
AcDbVisualStyle
  2
ColorChange
 70
    16
 71
     2
 72
     2
 73
     3
 90
        0
 40
-0.6
 41
-30.0
 62
     5
 63
     8
421
  8421504
 74
     1
 91
        4
 64
     7
 65
   257
 75
     1
175
     1
 42
1.0
 92
        8
 66
     8
424
  8421504
 43
1.0
 76
     1
 77
     6
 78
     2
 67
     7
 79
     5
170
     0
171
     0
290
     0
174
     0
 93
        1
 44
0.0
173
     0
291
     1
 45
0.0
1001
ACAD
1000
AcDbSavedByObjectVersion
1070
     0
  0
VISUALSTYLE
  5
4A4
102
{ACAD_REACTORS
330
49B
102
}
330
49B
100
AcDbVisualStyle
  2
Conceptual
 70
     9
 71
     3
 72
     2
 73
     0
 90
        0
 40
-0.6
 41
-30.0
 62
     5
 63
     7
421
 16777215
 74
     2
 91
        2
 64
     7
 65
   257
 75
     1
175
     1
 42
40.0
 92
        8
 66
     7
 43
1.0
 76
     1
 77
     6
 78
     2
 67
     7
 79
     3
170
     0
171
     0
290
     0
174
     0
 93
        1
 44
0.0
173
     0
291
     0
 45
0.0
1001
ACAD
1000
AcDbSavedByObjectVersion
1070
     0
  0
VISUALSTYLE
  5
4A6
102
{ACAD_REACTORS
330
49B
102
}
330
49B
100
AcDbVisualStyle
  2
Dim
 70
    11
 71
     2
 72
     2
 73
     0
 90
        0
 40
-0.6
 41
-30.0
 62
     5
 63
     7
421
 16777215
 74
     1
 91
        4
 64
     7
 65
   257
 75
     1
175
     1
 42
1.0
 92
        8
 66
     7
 43
1.0
 76
     1
 77
     6
 78
     2
 67
     7
 79
     5
170
     0
171
     0
290
     0
174
     0
 93
        1
 44
-50.0
173
     0
291
     1
 45
0.0
1001
ACAD
1000
AcDbSavedByObjectVersion
1070
     0
  0
VISUALSTYLE
  5
4AA
102
{ACAD_REACTORS
330
49B
102
}
330
49B
100
AcDbVisualStyle
  2
Facepattern
 70
    15
 71
     2
 72
     2
 73
     0
 90
        0
 40
-0.6
 41
-30.0
 62
     5
 63
     7
421
 16777215
 74
     1
 91
        4
 64
     7
 65
   257
 75
     1
175
     1
 42
1.0
 92
        8
 66
     7
 43
1.0
 76
     1
 77
     6
 78
     2
 67
     7
 79
     5
170
     0
171
     0
290
     0
174
     0
 93
        1
 44
0.0
173
     0
291
     1
 45
0.0
1001
ACAD
1000
AcDbSavedByObjectVersion
1070
     0
  0
VISUALSTYLE
  5
49C
102
{ACAD_REACTORS
330
49B
102
}
330
49B
100
AcDbVisualStyle
  2
Flat
 70
     0
 71
     2
 72
     1
 73
     1
 90
        2
 40
-0.6
 41
30.0
 62
     5
 63
     7
421
 16777215
 74
     0
 91
        4
 64
     7
 65
   257
 75
     1
175
     1
 42
1.0
 92
        8
 66
     7
 43
1.0
 76
     1
 77
     6
 78
     2
 67
     7
 79
     5
170
     0
171
     0
290
     0
174
     0
 93
       13
 44
0.0
173
     0
291
     1
 45
0.0
1001
ACAD
1000
AcDbSavedByObjectVersion
1070
     0
  0
VISUALSTYLE
  5
49D
102
{ACAD_REACTORS
330
49B
102
}
330
49B
100
AcDbVisualStyle
  2
FlatWithEdges
 70
     1
 71
     2
 72
     1
 73
     1
 90
        2
 40
-0.6
 41
30.0
 62
     5
 63
     7
421
 16777215
 74
     1
 91
        4
 64
     7
 65
   257
 75
     1
175
     1
 42
1.0
 92
        0
 66
   257
 43
1.0
 76
     1
 77
     6
 78
     2
 67
     7
 79
     5
170
     0
171
     0
290
     0
174
     0
 93
       13
 44
0.0
173
     0
291
     1
 45
0.0
1001
ACAD
1000
AcDbSavedByObjectVersion
1070
     0
  0
VISUALSTYLE
  5
49E
102
{ACAD_REACTORS
330
49B
102
}
330
49B
100
AcDbVisualStyle
  2
Gouraud
 70
     2
 71
     2
 72
     2
 73
     1
 90
        2
 40
-0.6
 41
30.0
 62
     5
 63
     7
421
 16777215
 74
     0
 91
        4
 64
     7
 65
   257
 75
     1
175
     1
 42
1.0
 92
        0
 66
     7
 43
1.0
 76
     1
 77
     6
 78
     2
 67
     7
 79
     5
170
     0
171
     0
290
     0
174
     0
 93
       13
 44
0.0
173
     0
291
     1
 45
0.0
1001
ACAD
1000
AcDbSavedByObjectVersion
1070
     0
  0
VISUALSTYLE
  5
49F
102
{ACAD_REACTORS
330
49B
102
}
330
49B
100
AcDbVisualStyle
  2
GouraudWithEdges
 70
     3
 71
     2
 72
     2
 73
     1
 90
        2
 40
-0.6
 41
30.0
 62
     5
 63
     7
421
 16777215
 74
     1
 91
        4
 64
     7
 65
   257
 75
     1
175
     1
 42
1.0
 92
        0
 66
   257
 43
1.0
 76
     1
 77
     6
 78
     2
 67
     7
 79
     5
170
     0
171
     0
290
     0
174
     0
 93
       13
 44
0.0
173
     0
291
     1
 45
0.0
1001
ACAD
1000
AcDbSavedByObjectVersion
1070
     0
  0
VISUALSTYLE
  5
4A9
102
{ACAD_REACTORS
330
49B
102
}
330
49B
100
AcDbVisualStyle
  2
Linepattern
 70
    14
 71
     2
 72
     2
 73
     0
 90
        0
 40
-0.6
 41
-30.0
 62
     5
 63
     7
421
 16777215
 74
     1
 91
        4
 64
     7
 65
   257
 75
     7
175
     7
 42
1.0
 92
        8
 66
     7
 43
1.0
 76
     1
 77
     6
 78
     2
 67
     7
 79
     5
170
     0
171
     0
290
     0
174
     0
 93
        1
 44
0.0
173
     0
291
     1
 45
0.0
1001
ACAD
1000
AcDbSavedByObjectVersion
1070
     0
  0
VISUALSTYLE
  5
4A5
102
{ACAD_REACTORS
330
49B
102
}
330
49B
100
AcDbVisualStyle
  2
Realistic
 70
     8
 71
     2
 72
     2
 73
     0
 90
        0
 40
-0.6
 41
-30.0
 62
     5
 63
     7
421
 16777215
 74
     1
 91
        0
 64
     7
 65
   257
 75
     1
175
     1
 42
1.0
 92
        8
 66
     8
424
  7895160
 43
1.0
 76
     1
 77
     6
 78
     2
 67
     7
 79
     5
170
     0
171
     0
290
     0
174
     0
 93
       13
 44
0.0
173
     0
291
     0
 45
0.0
1001
ACAD
1000
AcDbSavedByObjectVersion
1070
     0
  0
VISUALSTYLE
  5
4A8
102
{ACAD_REACTORS
330
49B
102
}
330
49B
100
AcDbVisualStyle
  2
Thicken
 70
    13
 71
     2
 72
     2
 73
     0
 90
        0
 40
-0.6
 41
-30.0
 62
     5
 63
     7
421
 16777215
 74
     1
 91
        4
 64
     7
 65
   257
 75
     1
175
     1
 42
1.0
 92
       12
 66
     7
 43
1.0
 76
     1
 77
     6
 78
     2
 67
     7
 79
     5
170
     0
171
     0
290
     0
174
     0
 93
        1
 44
0.0
173
     0
291
     1
 45
0.0
1001
ACAD
1000
AcDbSavedByObjectVersion
1070
     0
  0
DICTIONARYVAR
  5
4F6
102
{ACAD_REACTORS
330
362
102
}
330
362
100
DictionaryVariables
280
     0
  1
STANDARD
  0
DICTIONARYVAR
  5
363
102
{ACAD_REACTORS
330
362
102
}
330
362
100
DictionaryVariables
280
     0
  1
1
  0
DICTIONARY
  5
556
330
499
100
AcDbDictionary
280
     1
281
     1
  3
ACAD_XREC_ROUNDTRIP
360
557
  0
DICTIONARY
  5
554
330
498
100
AcDbDictionary
280
     1
281
     1
  3
ACAD_XREC_ROUNDTRIP
360
555
  0
DICTIONARY
  5
558
330
49A
100
AcDbDictionary
280
     1
281
     1
  3
ACAD_XREC_ROUNDTRIP
360
559
  0
DICTIONARY
  5
55A
330
4AE
100
AcDbDictionary
280
     1
281
     1
  3
ACAD_XREC_ROUNDTRIP
360
55B
  0
XRECORD
  5
557
102
{ACAD_REACTORS
330
556
102
}
330
556
100
AcDbXrecord
280
     1
102
MATERIAL
148
0.0
149
0.0
149
0.0
 93
        0
 94
       63
282
     0
 72
     1
 77
     1
171
     1
175
     1
179
     1
273
     0
  0
XRECORD
  5
555
102
{ACAD_REACTORS
330
554
102
}
330
554
100
AcDbXrecord
280
     1
102
MATERIAL
148
0.0
149
0.0
149
0.0
 93
        0
 94
       63
282
     0
 72
     1
 77
     1
171
     1
175
     1
179
     1
273
     0
  0
XRECORD
  5
559
102
{ACAD_REACTORS
330
558
102
}
330
558
100
AcDbXrecord
280
     1
102
MATERIAL
148
0.0
149
0.0
149
0.0
 93
        0
 94
       63
282
     0
 72
     1
 77
     1
171
     1
175
     1
179
     1
273
     0
  0
XRECORD
  5
55B
102
{ACAD_REACTORS
330
55A
102
}
330
55A
100
AcDbXrecord
280
     1
102
ACAD_ROUNDTRIP_PRE2007_TABLESTYLE
 90
      512
 91
        0
  1

 92
      512
 93
        0
  2

 94
      512
 95
        0
  3

  0
ENDSEC
  0
EOF
